<svg width="62" height="62" fill="none" xmlns="http://www.w3.org/2000/svg"><g clip-path="url('#clip0_23_67')" stroke="#60495A" stroke-width="5" stroke-linecap="round" stroke-linejoin="round"><path d="M41.149 41.127 31.082 30.846 21.016 41.127M31.082 30.846V53.98"/><path d="M52.196 47.27a12.755 12.755 0 0 0 5.512-6.146 13.107 13.107 0 0 0 .66-8.308 12.877 12.877 0 0 0-4.469-6.974 12.416 12.416 0 0 0-7.718-2.708h-3.17a20.72 20.72 0 0 0-4.153-8.171A20.173 20.173 0 0 0 31.63 9.46a19.767 19.767 0 0 0-8.853-1.73 19.807 19.807 0 0 0-8.705 2.39 20.264 20.264 0 0 0-6.812 6.03 20.792 20.792 0 0 0-3.552 8.462 20.99 20.99 0 0 0 .418 9.197 20.7 20.7 0 0 0 4.306 8.088"/><path d="M41.149 41.127 31.082 30.846 21.016 41.127"/></g><defs><clipPath id="clip0_23_67"><path fill="#fff" transform="translate(.88)" d="M0 0h60.4v61.691H0z"/></clipPath></defs></svg>