<svg width="62" height="62" viewBox="0 0 62 62" fill="none" xmlns="http://www.w3.org/2000/svg">
<g clip-path="url('#clip0_23_67')">
<path d="M41.149 41.1275L31.0823 30.8457L21.0156 41.1275" stroke="#60495A" stroke-width="5" stroke-linecap="round" stroke-linejoin="round"></path>
<path d="M31.082 30.8457V53.9798" stroke="#60495A" stroke-width="5" stroke-linecap="round" stroke-linejoin="round"></path>
<path d="M52.1963 47.2708C54.6509 45.904 56.59 43.7412 57.7075 41.1238C58.825 38.5064 59.0573 35.5835 58.3677 32.8163C57.6781 30.0491 56.106 27.5952 53.8993 25.842C51.6926 24.0888 48.9772 23.1361 46.1815 23.1342H43.0105C42.2488 20.1248 40.829 17.331 38.8579 14.9627C36.8868 12.5944 34.4157 10.7134 31.6304 9.46093C28.8451 8.20849 25.818 7.61727 22.7768 7.73172C19.7356 7.84616 16.7593 8.6633 14.0718 10.1217C11.3843 11.5801 9.05543 13.6418 7.26031 16.1518C5.4652 18.6617 4.25055 21.5547 3.70768 24.6132C3.16481 27.6717 3.30785 30.8161 4.12604 33.81C4.94422 36.8038 6.41628 39.5693 8.43152 41.8985" stroke="#60495A" stroke-width="5" stroke-linecap="round" stroke-linejoin="round"></path>
<path d="M41.149 41.1275L31.0823 30.8457L21.0156 41.1275" stroke="#60495A" stroke-width="5" stroke-linecap="round" stroke-linejoin="round"></path>
</g>
<defs>
<clipPath id="clip0_23_67">
<rect width="60.4" height="61.6909" fill="white" transform="translate(0.880859)"></rect>
</clipPath>
</defs>
</svg>
