<svg width="387" height="186" viewBox="0 0 387 186" fill="none" xmlns="http://www.w3.org/2000/svg">
<path d="M41.7398 10.258C41.4691 9.68867 41.0771 9.25 40.5638 8.942C40.0505 8.62467 39.4531 8.466 38.7718 8.466C38.0905 8.466 37.4745 8.62467 36.9238 8.942C36.3825 9.25 35.9531 9.698 35.6358 10.286C35.3278 10.8647 35.1738 11.5367 35.1738 12.302C35.1738 13.0673 35.3278 13.7393 35.6358 14.318C35.9531 14.8967 36.3825 15.3447 36.9238 15.662C37.4745 15.97 38.0905 16.124 38.7718 16.124C39.7238 16.124 40.5078 15.8393 41.1238 15.27C41.7398 14.7007 42.0991 13.9307 42.2018 12.96H38.3098V11.924H43.5598V12.904C43.4851 13.7067 43.2331 14.444 42.8038 15.116C42.3745 15.7787 41.8098 16.306 41.1098 16.698C40.4098 17.0807 39.6305 17.272 38.7718 17.272C37.8665 17.272 37.0405 17.062 36.2938 16.642C35.5471 16.2127 34.9545 15.62 34.5158 14.864C34.0865 14.108 33.8718 13.254 33.8718 12.302C33.8718 11.35 34.0865 10.496 34.5158 9.74C34.9545 8.97467 35.5471 8.382 36.2938 7.962C37.0405 7.53267 37.8665 7.318 38.7718 7.318C39.8078 7.318 40.7225 7.57467 41.5158 8.088C42.3185 8.60133 42.9018 9.32467 43.2658 10.258H41.7398Z" fill="white"/>
<path d="M46.5183 10.762C46.7423 10.3233 47.0596 9.98267 47.4703 9.74C47.8903 9.49733 48.399 9.376 48.9963 9.376V10.692H48.6603C47.2323 10.692 46.5183 11.4667 46.5183 13.016V17.188H45.2443V9.516H46.5183V10.762Z" fill="white"/>
<path d="M53.8129 17.314C53.0943 17.314 52.4409 17.1507 51.8529 16.824C51.2743 16.4973 50.8169 16.0353 50.4809 15.438C50.1543 14.8313 49.9909 14.1313 49.9909 13.338C49.9909 12.554 50.1589 11.8633 50.4949 11.266C50.8403 10.6593 51.3069 10.1973 51.8949 9.88C52.4829 9.55333 53.1409 9.39 53.8689 9.39C54.5969 9.39 55.2549 9.55333 55.8429 9.88C56.4309 10.1973 56.8929 10.6547 57.2289 11.252C57.5743 11.8493 57.7469 12.5447 57.7469 13.338C57.7469 14.1313 57.5696 14.8313 57.2149 15.438C56.8696 16.0353 56.3983 16.4973 55.8009 16.824C55.2036 17.1507 54.5409 17.314 53.8129 17.314ZM53.8129 16.194C54.2703 16.194 54.6996 16.0867 55.1009 15.872C55.5023 15.6573 55.8243 15.3353 56.0669 14.906C56.3189 14.4767 56.4449 13.954 56.4449 13.338C56.4449 12.722 56.3236 12.1993 56.0809 11.77C55.8383 11.3407 55.5209 11.0233 55.1289 10.818C54.7369 10.6033 54.3123 10.496 53.8549 10.496C53.3883 10.496 52.9589 10.6033 52.5669 10.818C52.1843 11.0233 51.8763 11.3407 51.6429 11.77C51.4096 12.1993 51.2929 12.722 51.2929 13.338C51.2929 13.9633 51.4049 14.4907 51.6289 14.92C51.8623 15.3493 52.1703 15.6713 52.5529 15.886C52.9356 16.0913 53.3556 16.194 53.8129 16.194Z" fill="white"/>
<path d="M66.226 9.516V17.188H64.952V16.054C64.7094 16.446 64.3687 16.754 63.93 16.978C63.5007 17.1927 63.0247 17.3 62.502 17.3C61.9047 17.3 61.368 17.1787 60.892 16.936C60.416 16.684 60.038 16.3107 59.758 15.816C59.4874 15.3213 59.352 14.7193 59.352 14.01V9.516H60.612V13.842C60.612 14.598 60.8033 15.1813 61.186 15.592C61.5687 15.9933 62.0914 16.194 62.754 16.194C63.4354 16.194 63.972 15.984 64.364 15.564C64.756 15.144 64.952 14.5327 64.952 13.73V9.516H66.226Z" fill="white"/>
<path d="M72.1151 9.376C73.0484 9.376 73.8044 9.66067 74.3831 10.23C74.9618 10.79 75.2511 11.602 75.2511 12.666V17.188H73.9911V12.848C73.9911 12.0827 73.7998 11.4993 73.4171 11.098C73.0344 10.6873 72.5118 10.482 71.8491 10.482C71.1771 10.482 70.6404 10.692 70.2391 11.112C69.8471 11.532 69.6511 12.1433 69.6511 12.946V17.188H68.3771V9.516H69.6511V10.608C69.9031 10.216 70.2438 9.91267 70.6731 9.698C71.1118 9.48333 71.5924 9.376 72.1151 9.376Z" fill="white"/>
<path d="M76.8562 13.324C76.8562 12.54 77.0148 11.854 77.3322 11.266C77.6495 10.6687 78.0835 10.2067 78.6342 9.88C79.1942 9.55333 79.8195 9.39 80.5102 9.39C81.1075 9.39 81.6628 9.53 82.1762 9.81C82.6895 10.0807 83.0815 10.44 83.3522 10.888V6.828H84.6402V17.188H83.3522V15.746C83.1002 16.2033 82.7268 16.5813 82.2322 16.88C81.7375 17.1693 81.1588 17.314 80.4962 17.314C79.8148 17.314 79.1942 17.146 78.6342 16.81C78.0835 16.474 77.6495 16.0027 77.3322 15.396C77.0148 14.7893 76.8562 14.0987 76.8562 13.324ZM83.3522 13.338C83.3522 12.7593 83.2355 12.2553 83.0022 11.826C82.7688 11.3967 82.4515 11.07 82.0502 10.846C81.6582 10.6127 81.2242 10.496 80.7482 10.496C80.2722 10.496 79.8382 10.608 79.4462 10.832C79.0542 11.056 78.7415 11.3827 78.5082 11.812C78.2748 12.2413 78.1582 12.7453 78.1582 13.324C78.1582 13.912 78.2748 14.4253 78.5082 14.864C78.7415 15.2933 79.0542 15.6247 79.4462 15.858C79.8382 16.082 80.2722 16.194 80.7482 16.194C81.2242 16.194 81.6582 16.082 82.0502 15.858C82.4515 15.6247 82.7688 15.2933 83.0022 14.864C83.2355 14.4253 83.3522 13.9167 83.3522 13.338Z" fill="white"/>
<path d="M96.0415 7.43V8.466H91.7995V11.756H95.2435V12.792H91.7995V17.188H90.5255V7.43H96.0415Z" fill="white"/>
<path d="M98.8542 6.828V17.188H97.5802V6.828H98.8542Z" fill="white"/>
<path d="M104.372 17.314C103.653 17.314 103 17.1507 102.412 16.824C101.833 16.4973 101.376 16.0353 101.04 15.438C100.713 14.8313 100.55 14.1313 100.55 13.338C100.55 12.554 100.718 11.8633 101.054 11.266C101.399 10.6593 101.866 10.1973 102.454 9.88C103.042 9.55333 103.7 9.39 104.428 9.39C105.156 9.39 105.814 9.55333 106.402 9.88C106.99 10.1973 107.452 10.6547 107.788 11.252C108.133 11.8493 108.306 12.5447 108.306 13.338C108.306 14.1313 108.128 14.8313 107.774 15.438C107.428 16.0353 106.957 16.4973 106.36 16.824C105.762 17.1507 105.1 17.314 104.372 17.314ZM104.372 16.194C104.829 16.194 105.258 16.0867 105.66 15.872C106.061 15.6573 106.383 15.3353 106.626 14.906C106.878 14.4767 107.004 13.954 107.004 13.338C107.004 12.722 106.882 12.1993 106.64 11.77C106.397 11.3407 106.08 11.0233 105.688 10.818C105.296 10.6033 104.871 10.496 104.414 10.496C103.947 10.496 103.518 10.6033 103.126 10.818C102.743 11.0233 102.435 11.3407 102.202 11.77C101.968 12.1993 101.852 12.722 101.852 13.338C101.852 13.9633 101.964 14.4907 102.188 14.92C102.421 15.3493 102.729 15.6713 103.112 15.886C103.494 16.0913 103.914 16.194 104.372 16.194Z" fill="white"/>
<path d="M113.327 17.314C112.608 17.314 111.955 17.1507 111.367 16.824C110.788 16.4973 110.331 16.0353 109.995 15.438C109.668 14.8313 109.505 14.1313 109.505 13.338C109.505 12.554 109.673 11.8633 110.009 11.266C110.354 10.6593 110.821 10.1973 111.409 9.88C111.997 9.55333 112.655 9.39 113.383 9.39C114.111 9.39 114.769 9.55333 115.357 9.88C115.945 10.1973 116.407 10.6547 116.743 11.252C117.088 11.8493 117.261 12.5447 117.261 13.338C117.261 14.1313 117.083 14.8313 116.729 15.438C116.383 16.0353 115.912 16.4973 115.315 16.824C114.717 17.1507 114.055 17.314 113.327 17.314ZM113.327 16.194C113.784 16.194 114.213 16.0867 114.615 15.872C115.016 15.6573 115.338 15.3353 115.581 14.906C115.833 14.4767 115.959 13.954 115.959 13.338C115.959 12.722 115.837 12.1993 115.595 11.77C115.352 11.3407 115.035 11.0233 114.643 10.818C114.251 10.6033 113.826 10.496 113.369 10.496C112.902 10.496 112.473 10.6033 112.081 10.818C111.698 11.0233 111.39 11.3407 111.157 11.77C110.923 12.1993 110.807 12.722 110.807 13.338C110.807 13.9633 110.919 14.4907 111.143 14.92C111.376 15.3493 111.684 15.6713 112.067 15.886C112.449 16.0913 112.869 16.194 113.327 16.194Z" fill="white"/>
<path d="M120.21 10.762C120.434 10.3233 120.751 9.98267 121.162 9.74C121.582 9.49733 122.09 9.376 122.688 9.376V10.692H122.352C120.924 10.692 120.21 11.4667 120.21 13.016V17.188H118.936V9.516H120.21V10.762Z" fill="white"/>
<path d="M125.474 15.424L123.906 19.19H123.052L124.074 15.424H125.474Z" fill="white"/>
<path d="M130.12 8.228V7.066H132.752V17.188H131.464V8.228H130.12Z" fill="white"/>
<path d="M134.941 12.022C134.941 10.4167 135.202 9.166 135.725 8.27C136.247 7.36467 137.162 6.912 138.469 6.912C139.766 6.912 140.676 7.36467 141.199 8.27C141.721 9.166 141.983 10.4167 141.983 12.022C141.983 13.6553 141.721 14.9247 141.199 15.83C140.676 16.7353 139.766 17.188 138.469 17.188C137.162 17.188 136.247 16.7353 135.725 15.83C135.202 14.9247 134.941 13.6553 134.941 12.022ZM140.723 12.022C140.723 11.21 140.667 10.524 140.555 9.964C140.452 9.39467 140.233 8.93733 139.897 8.592C139.57 8.24667 139.094 8.074 138.469 8.074C137.834 8.074 137.349 8.24667 137.013 8.592C136.686 8.93733 136.467 9.39467 136.355 9.964C136.252 10.524 136.201 11.21 136.201 12.022C136.201 12.862 136.252 13.5667 136.355 14.136C136.467 14.7053 136.686 15.1627 137.013 15.508C137.349 15.8533 137.834 16.026 138.469 16.026C139.094 16.026 139.57 15.8533 139.897 15.508C140.233 15.1627 140.452 14.7053 140.555 14.136C140.667 13.5667 140.723 12.862 140.723 12.022Z" fill="white"/>
<path d="M148.702 4L144.866 19.568H143.606L147.428 4H148.702Z" fill="white"/>
<path d="M150.054 8.228V7.066H152.686V17.188H151.398V8.228H150.054Z" fill="white"/>
<path d="M159.844 4L156.008 19.568H154.748L158.57 4H159.844Z" fill="white"/>
<path d="M161.504 9.614C161.57 8.75533 161.901 8.08333 162.498 7.598C163.096 7.11267 163.87 6.87 164.822 6.87C165.457 6.87 166.003 6.98667 166.46 7.22C166.927 7.444 167.277 7.752 167.51 8.144C167.753 8.536 167.874 8.97933 167.874 9.474C167.874 10.0527 167.706 10.552 167.37 10.972C167.044 11.392 166.614 11.6627 166.082 11.784V11.854C166.689 12.0033 167.17 12.2973 167.524 12.736C167.879 13.1747 168.056 13.7487 168.056 14.458C168.056 14.99 167.935 15.4707 167.692 15.9C167.45 16.32 167.086 16.6513 166.6 16.894C166.115 17.1367 165.532 17.258 164.85 17.258C163.861 17.258 163.049 17.0013 162.414 16.488C161.78 15.9653 161.425 15.228 161.35 14.276H162.582C162.648 14.836 162.876 15.2933 163.268 15.648C163.66 16.0027 164.183 16.18 164.836 16.18C165.49 16.18 165.984 16.012 166.32 15.676C166.666 15.3307 166.838 14.8873 166.838 14.346C166.838 13.646 166.605 13.142 166.138 12.834C165.672 12.526 164.967 12.372 164.024 12.372H163.702V11.308H164.038C164.897 11.2987 165.546 11.1587 165.984 10.888C166.423 10.608 166.642 10.1787 166.642 9.6C166.642 9.10533 166.479 8.70867 166.152 8.41C165.835 8.11133 165.378 7.962 164.78 7.962C164.202 7.962 163.735 8.11133 163.38 8.41C163.026 8.70867 162.816 9.11 162.75 9.614H161.504Z" fill="white"/>
<path d="M171.624 11.924C171.102 11.7187 170.7 11.42 170.42 11.028C170.14 10.636 170 10.16 170 9.6C170 9.096 170.126 8.64333 170.378 8.242C170.63 7.83133 171.004 7.50933 171.498 7.276C172.002 7.03333 172.609 6.912 173.318 6.912C174.028 6.912 174.63 7.03333 175.124 7.276C175.628 7.50933 176.006 7.83133 176.258 8.242C176.52 8.64333 176.65 9.096 176.65 9.6C176.65 10.1413 176.506 10.6173 176.216 11.028C175.927 11.4293 175.53 11.728 175.026 11.924C175.605 12.1013 176.062 12.414 176.398 12.862C176.744 13.3007 176.916 13.8327 176.916 14.458C176.916 15.0647 176.767 15.5967 176.468 16.054C176.17 16.502 175.745 16.852 175.194 17.104C174.653 17.3467 174.028 17.468 173.318 17.468C172.609 17.468 171.984 17.3467 171.442 17.104C170.91 16.852 170.495 16.502 170.196 16.054C169.898 15.5967 169.748 15.0647 169.748 14.458C169.748 13.8327 169.916 13.296 170.252 12.848C170.588 12.4 171.046 12.092 171.624 11.924ZM175.418 9.754C175.418 9.18467 175.232 8.746 174.858 8.438C174.485 8.13 173.972 7.976 173.318 7.976C172.674 7.976 172.166 8.13 171.792 8.438C171.419 8.746 171.232 9.18933 171.232 9.768C171.232 10.2907 171.424 10.7107 171.806 11.028C172.198 11.3453 172.702 11.504 173.318 11.504C173.944 11.504 174.448 11.3453 174.83 11.028C175.222 10.7013 175.418 10.2767 175.418 9.754ZM173.318 12.484C172.628 12.484 172.063 12.6473 171.624 12.974C171.186 13.2913 170.966 13.772 170.966 14.416C170.966 15.0133 171.176 15.494 171.596 15.858C172.026 16.222 172.6 16.404 173.318 16.404C174.037 16.404 174.606 16.222 175.026 15.858C175.446 15.494 175.656 15.0133 175.656 14.416C175.656 13.7907 175.442 13.3147 175.012 12.988C174.583 12.652 174.018 12.484 173.318 12.484Z" fill="white"/>
<path d="M180.134 15.424L178.566 19.19H177.712L178.734 15.424H180.134Z" fill="white"/>
<path d="M3.85 59.286C3.206 59.286 2.62733 59.174 2.114 58.95C1.61 58.7167 1.21333 58.3993 0.924 57.998C0.634667 57.5873 0.485333 57.116 0.476 56.584H1.834C1.88067 57.0413 2.06733 57.4287 2.394 57.746C2.73 58.054 3.21533 58.208 3.85 58.208C4.45667 58.208 4.93267 58.0587 5.278 57.76C5.63267 57.452 5.81 57.06 5.81 56.584C5.81 56.2107 5.70733 55.9073 5.502 55.674C5.29667 55.4407 5.04 55.2633 4.732 55.142C4.424 55.0207 4.00867 54.89 3.486 54.75C2.842 54.582 2.324 54.414 1.932 54.246C1.54933 54.078 1.218 53.8167 0.938 53.462C0.667333 53.098 0.532 52.6127 0.532 52.006C0.532 51.474 0.667333 51.0027 0.938 50.592C1.20867 50.1813 1.58667 49.864 2.072 49.64C2.56667 49.416 3.13133 49.304 3.766 49.304C4.68067 49.304 5.42733 49.5327 6.006 49.99C6.594 50.4473 6.92533 51.054 7 51.81H5.6C5.55333 51.4367 5.35733 51.11 5.012 50.83C4.66667 50.5407 4.20933 50.396 3.64 50.396C3.108 50.396 2.674 50.536 2.338 50.816C2.002 51.0867 1.834 51.4693 1.834 51.964C1.834 52.3187 1.932 52.608 2.128 52.832C2.33333 53.056 2.58067 53.2287 2.87 53.35C3.16867 53.462 3.584 53.5927 4.116 53.742C4.76 53.9193 5.278 54.0967 5.67 54.274C6.062 54.442 6.398 54.708 6.678 55.072C6.958 55.4267 7.098 55.912 7.098 56.528C7.098 57.004 6.972 57.452 6.72 57.872C6.468 58.292 6.09467 58.6327 5.6 58.894C5.10533 59.1553 4.522 59.286 3.85 59.286Z" fill="white"/>
<path d="M8.4968 55.324C8.4968 54.54 8.65546 53.854 8.9728 53.266C9.29013 52.6687 9.72413 52.2067 10.2748 51.88C10.8348 51.5533 11.4555 51.39 12.1368 51.39C12.8088 51.39 13.3921 51.5347 13.8868 51.824C14.3815 52.1133 14.7501 52.4773 14.9928 52.916V51.516H16.2808V59.188H14.9928V57.76C14.7408 58.208 14.3628 58.5813 13.8588 58.88C13.3641 59.1693 12.7855 59.314 12.1228 59.314C11.4415 59.314 10.8255 59.146 10.2748 58.81C9.72413 58.474 9.29013 58.0027 8.9728 57.396C8.65546 56.7893 8.4968 56.0987 8.4968 55.324ZM14.9928 55.338C14.9928 54.7593 14.8761 54.2553 14.6428 53.826C14.4095 53.3967 14.0921 53.07 13.6908 52.846C13.2988 52.6127 12.8648 52.496 12.3888 52.496C11.9128 52.496 11.4788 52.608 11.0868 52.832C10.6948 53.056 10.3821 53.3827 10.1488 53.812C9.91546 54.2413 9.7988 54.7453 9.7988 55.324C9.7988 55.912 9.91546 56.4253 10.1488 56.864C10.3821 57.2933 10.6948 57.6247 11.0868 57.858C11.4788 58.082 11.9128 58.194 12.3888 58.194C12.8648 58.194 13.2988 58.082 13.6908 57.858C14.0921 57.6247 14.4095 57.2933 14.6428 56.864C14.8761 56.4253 14.9928 55.9167 14.9928 55.338Z" fill="white"/>
<path d="M27.6597 51.376C28.2571 51.376 28.7891 51.502 29.2557 51.754C29.7224 51.9967 30.0911 52.3653 30.3617 52.86C30.6324 53.3547 30.7677 53.9567 30.7677 54.666V59.188H29.5077V54.848C29.5077 54.0827 29.3164 53.4993 28.9337 53.098C28.5604 52.6873 28.0517 52.482 27.4077 52.482C26.7451 52.482 26.2177 52.6967 25.8257 53.126C25.4337 53.546 25.2377 54.1573 25.2377 54.96V59.188H23.9777V54.848C23.9777 54.0827 23.7864 53.4993 23.4037 53.098C23.0304 52.6873 22.5217 52.482 21.8777 52.482C21.2151 52.482 20.6877 52.6967 20.2957 53.126C19.9037 53.546 19.7077 54.1573 19.7077 54.96V59.188H18.4337V51.516H19.7077V52.622C19.9597 52.2207 20.2957 51.9127 20.7157 51.698C21.1451 51.4833 21.6164 51.376 22.1297 51.376C22.7737 51.376 23.3431 51.5207 23.8377 51.81C24.3324 52.0993 24.7011 52.524 24.9437 53.084C25.1584 52.5427 25.5131 52.1227 26.0077 51.824C26.5024 51.5253 27.0531 51.376 27.6597 51.376Z" fill="white"/>
<path d="M34.1316 52.93C34.3836 52.4913 34.7569 52.1273 35.2516 51.838C35.7556 51.5393 36.3389 51.39 37.0016 51.39C37.6829 51.39 38.2989 51.5533 38.8496 51.88C39.4096 52.2067 39.8482 52.6687 40.1656 53.266C40.4829 53.854 40.6416 54.54 40.6416 55.324C40.6416 56.0987 40.4829 56.7893 40.1656 57.396C39.8482 58.0027 39.4096 58.474 38.8496 58.81C38.2989 59.146 37.6829 59.314 37.0016 59.314C36.3482 59.314 35.7696 59.1693 35.2656 58.88C34.7709 58.5813 34.3929 58.2127 34.1316 57.774V62.828H32.8576V51.516H34.1316V52.93ZM39.3396 55.324C39.3396 54.7453 39.2229 54.2413 38.9896 53.812C38.7562 53.3827 38.4389 53.056 38.0376 52.832C37.6456 52.608 37.2116 52.496 36.7356 52.496C36.2689 52.496 35.8349 52.6127 35.4336 52.846C35.0416 53.07 34.7242 53.4013 34.4816 53.84C34.2482 54.2693 34.1316 54.7687 34.1316 55.338C34.1316 55.9167 34.2482 56.4253 34.4816 56.864C34.7242 57.2933 35.0416 57.6247 35.4336 57.858C35.8349 58.082 36.2689 58.194 36.7356 58.194C37.2116 58.194 37.6456 58.082 38.0376 57.858C38.4389 57.6247 38.7562 57.2933 38.9896 56.864C39.2229 56.4253 39.3396 55.912 39.3396 55.324Z" fill="white"/>
<path d="M41.8425 55.324C41.8425 54.54 42.0012 53.854 42.3185 53.266C42.6358 52.6687 43.0698 52.2067 43.6205 51.88C44.1805 51.5533 44.8012 51.39 45.4825 51.39C46.1545 51.39 46.7378 51.5347 47.2325 51.824C47.7272 52.1133 48.0958 52.4773 48.3385 52.916V51.516H49.6265V59.188H48.3385V57.76C48.0865 58.208 47.7085 58.5813 47.2045 58.88C46.7098 59.1693 46.1312 59.314 45.4685 59.314C44.7872 59.314 44.1712 59.146 43.6205 58.81C43.0698 58.474 42.6358 58.0027 42.3185 57.396C42.0012 56.7893 41.8425 56.0987 41.8425 55.324ZM48.3385 55.338C48.3385 54.7593 48.2218 54.2553 47.9885 53.826C47.7552 53.3967 47.4378 53.07 47.0365 52.846C46.6445 52.6127 46.2105 52.496 45.7345 52.496C45.2585 52.496 44.8245 52.608 44.4325 52.832C44.0405 53.056 43.7278 53.3827 43.4945 53.812C43.2612 54.2413 43.1445 54.7453 43.1445 55.324C43.1445 55.912 43.2612 56.4253 43.4945 56.864C43.7278 57.2933 44.0405 57.6247 44.4325 57.858C44.8245 58.082 45.2585 58.194 45.7345 58.194C46.2105 58.194 46.6445 58.082 47.0365 57.858C47.4378 57.6247 47.7552 57.2933 47.9885 56.864C48.2218 56.4253 48.3385 55.9167 48.3385 55.338Z" fill="white"/>
<path d="M53.3334 52.566V57.088C53.3334 57.4613 53.4128 57.7273 53.5714 57.886C53.7301 58.0353 54.0054 58.11 54.3974 58.11H55.3354V59.188H54.1874C53.4781 59.188 52.9461 59.0247 52.5914 58.698C52.2368 58.3713 52.0594 57.8347 52.0594 57.088V52.566H51.0654V51.516H52.0594V49.584H53.3334V51.516H55.3354V52.566H53.3334Z" fill="white"/>
<path d="M60.687 51.376C61.2657 51.376 61.7884 51.502 62.255 51.754C62.7217 51.9967 63.0857 52.3653 63.347 52.86C63.6177 53.3547 63.7531 53.9567 63.7531 54.666V59.188H62.493V54.848C62.493 54.0827 62.3017 53.4993 61.919 53.098C61.5364 52.6873 61.0137 52.482 60.351 52.482C59.679 52.482 59.1424 52.692 58.741 53.112C58.349 53.532 58.153 54.1433 58.153 54.946V59.188H56.879V48.828H58.153V52.608C58.405 52.216 58.7504 51.9127 59.189 51.698C59.637 51.4833 60.1364 51.376 60.687 51.376Z" fill="white"/>
<path d="M77.6305 49.43L73.9485 59.188H72.4785L68.7965 49.43H70.1545L73.2206 57.844L76.2866 49.43H77.6305Z" fill="white"/>
<path d="M79.6855 50.27C79.4428 50.27 79.2375 50.186 79.0695 50.018C78.9015 49.85 78.8175 49.6447 78.8175 49.402C78.8175 49.1593 78.9015 48.954 79.0695 48.786C79.2375 48.618 79.4428 48.534 79.6855 48.534C79.9188 48.534 80.1148 48.618 80.2735 48.786C80.4415 48.954 80.5255 49.1593 80.5255 49.402C80.5255 49.6447 80.4415 49.85 80.2735 50.018C80.1148 50.186 79.9188 50.27 79.6855 50.27ZM80.3015 51.516V59.188H79.0275V51.516H80.3015Z" fill="white"/>
<path d="M86.2108 51.376C87.1441 51.376 87.9001 51.6607 88.4788 52.23C89.0575 52.79 89.3468 53.602 89.3468 54.666V59.188H88.0868V54.848C88.0868 54.0827 87.8955 53.4993 87.5128 53.098C87.1301 52.6873 86.6075 52.482 85.9448 52.482C85.2728 52.482 84.7361 52.692 84.3348 53.112C83.9428 53.532 83.7468 54.1433 83.7468 54.946V59.188H82.4728V51.516H83.7468V52.608C83.9988 52.216 84.3395 51.9127 84.7688 51.698C85.2075 51.4833 85.6881 51.376 86.2108 51.376Z" fill="white"/>
<path d="M90.9519 55.324C90.9519 54.54 91.1105 53.854 91.4279 53.266C91.7452 52.6687 92.1792 52.2067 92.7299 51.88C93.2899 51.5533 93.9105 51.39 94.5919 51.39C95.2639 51.39 95.8472 51.5347 96.3419 51.824C96.8365 52.1133 97.2052 52.4773 97.4479 52.916V51.516H98.7359V59.188H97.4479V57.76C97.1959 58.208 96.8179 58.5813 96.3139 58.88C95.8192 59.1693 95.2405 59.314 94.5779 59.314C93.8965 59.314 93.2805 59.146 92.7299 58.81C92.1792 58.474 91.7452 58.0027 91.4279 57.396C91.1105 56.7893 90.9519 56.0987 90.9519 55.324ZM97.4479 55.338C97.4479 54.7593 97.3312 54.2553 97.0979 53.826C96.8645 53.3967 96.5472 53.07 96.1459 52.846C95.7539 52.6127 95.3199 52.496 94.8439 52.496C94.3679 52.496 93.9339 52.608 93.5419 52.832C93.1499 53.056 92.8372 53.3827 92.6039 53.812C92.3705 54.2413 92.2539 54.7453 92.2539 55.324C92.2539 55.912 92.3705 56.4253 92.6039 56.864C92.8372 57.2933 93.1499 57.6247 93.5419 57.858C93.9339 58.082 94.3679 58.194 94.8439 58.194C95.3199 58.194 95.7539 58.082 96.1459 57.858C96.5472 57.6247 96.8645 57.2933 97.0979 56.864C97.3312 56.4253 97.4479 55.9167 97.4479 55.338Z" fill="white"/>
<path d="M107.497 51.516L102.877 62.8H101.561L103.073 59.104L99.9788 51.516H101.393L103.801 57.732L106.181 51.516H107.497Z" fill="white"/>
<path d="M108.301 55.324C108.301 54.54 108.46 53.854 108.777 53.266C109.095 52.6687 109.529 52.2067 110.079 51.88C110.639 51.5533 111.26 51.39 111.941 51.39C112.613 51.39 113.197 51.5347 113.691 51.824C114.186 52.1133 114.555 52.4773 114.797 52.916V51.516H116.085V59.188H114.797V57.76C114.545 58.208 114.167 58.5813 113.663 58.88C113.169 59.1693 112.59 59.314 111.927 59.314C111.246 59.314 110.63 59.146 110.079 58.81C109.529 58.474 109.095 58.0027 108.777 57.396C108.46 56.7893 108.301 56.0987 108.301 55.324ZM114.797 55.338C114.797 54.7593 114.681 54.2553 114.447 53.826C114.214 53.3967 113.897 53.07 113.495 52.846C113.103 52.6127 112.669 52.496 112.193 52.496C111.717 52.496 111.283 52.608 110.891 52.832C110.499 53.056 110.187 53.3827 109.953 53.812C109.72 54.2413 109.603 54.7453 109.603 55.324C109.603 55.912 109.72 56.4253 109.953 56.864C110.187 57.2933 110.499 57.6247 110.891 57.858C111.283 58.082 111.717 58.194 112.193 58.194C112.669 58.194 113.103 58.082 113.495 57.858C113.897 57.6247 114.214 57.2933 114.447 56.864C114.681 56.4253 114.797 55.9167 114.797 55.338Z" fill="white"/>
<path d="M122.522 59.188L119.512 55.8V59.188H118.238V48.828H119.512V54.918L122.466 51.516H124.244L120.632 55.338L124.258 59.188H122.522Z" fill="white"/>
<path d="M124.967 55.324C124.967 54.54 125.126 53.854 125.444 53.266C125.761 52.6687 126.195 52.2067 126.745 51.88C127.305 51.5533 127.926 51.39 128.607 51.39C129.279 51.39 129.863 51.5347 130.357 51.824C130.852 52.1133 131.221 52.4773 131.464 52.916V51.516H132.751V59.188H131.464V57.76C131.212 58.208 130.833 58.5813 130.329 58.88C129.835 59.1693 129.256 59.314 128.593 59.314C127.912 59.314 127.296 59.146 126.745 58.81C126.195 58.474 125.761 58.0027 125.444 57.396C125.126 56.7893 124.967 56.0987 124.967 55.324ZM131.464 55.338C131.464 54.7593 131.347 54.2553 131.113 53.826C130.88 53.3967 130.563 53.07 130.161 52.846C129.769 52.6127 129.335 52.496 128.859 52.496C128.383 52.496 127.95 52.608 127.558 52.832C127.166 53.056 126.853 53.3827 126.619 53.812C126.386 54.2413 126.27 54.7453 126.27 55.324C126.27 55.912 126.386 56.4253 126.619 56.864C126.853 57.2933 127.166 57.6247 127.558 57.858C127.95 58.082 128.383 58.194 128.859 58.194C129.335 58.194 129.769 58.082 130.161 57.858C130.563 57.6247 130.88 57.2933 131.113 56.864C131.347 56.4253 131.464 55.9167 131.464 55.338Z" fill="white"/>
<path d="M144.643 49.43V50.466H141.983V59.188H140.709V50.466H138.035V49.43H144.643Z" fill="white"/>
<path d="M153.211 55.058C153.211 55.3007 153.197 55.5573 153.169 55.828H147.037C147.084 56.584 147.34 57.1767 147.807 57.606C148.283 58.026 148.857 58.236 149.529 58.236C150.08 58.236 150.537 58.11 150.901 57.858C151.274 57.5967 151.536 57.2513 151.685 56.822H153.057C152.852 57.5593 152.441 58.1613 151.825 58.628C151.209 59.0853 150.444 59.314 149.529 59.314C148.801 59.314 148.148 59.1507 147.569 58.824C147 58.4973 146.552 58.0353 146.225 57.438C145.898 56.8313 145.735 56.1313 145.735 55.338C145.735 54.5447 145.894 53.8493 146.211 53.252C146.528 52.6547 146.972 52.1973 147.541 51.88C148.12 51.5533 148.782 51.39 149.529 51.39C150.257 51.39 150.901 51.5487 151.461 51.866C152.021 52.1833 152.45 52.622 152.749 53.182C153.057 53.7327 153.211 54.358 153.211 55.058ZM151.895 54.792C151.895 54.3067 151.788 53.8913 151.573 53.546C151.358 53.1913 151.064 52.9253 150.691 52.748C150.327 52.5613 149.921 52.468 149.473 52.468C148.829 52.468 148.278 52.6733 147.821 53.084C147.373 53.4947 147.116 54.064 147.051 54.792H151.895Z" fill="white"/>
<path d="M164.119 51.376C164.716 51.376 165.248 51.502 165.715 51.754C166.181 51.9967 166.55 52.3653 166.821 52.86C167.091 53.3547 167.227 53.9567 167.227 54.666V59.188H165.967V54.848C165.967 54.0827 165.775 53.4993 165.393 53.098C165.019 52.6873 164.511 52.482 163.867 52.482C163.204 52.482 162.677 52.6967 162.285 53.126C161.893 53.546 161.697 54.1573 161.697 54.96V59.188H160.437V54.848C160.437 54.0827 160.245 53.4993 159.863 53.098C159.489 52.6873 158.981 52.482 158.337 52.482C157.674 52.482 157.147 52.6967 156.755 53.126C156.363 53.546 156.167 54.1573 156.167 54.96V59.188H154.893V51.516H156.167V52.622C156.419 52.2207 156.755 51.9127 157.175 51.698C157.604 51.4833 158.075 51.376 158.589 51.376C159.233 51.376 159.802 51.5207 160.297 51.81C160.791 52.0993 161.16 52.524 161.403 53.084C161.617 52.5427 161.972 52.1227 162.467 51.824C162.961 51.5253 163.512 51.376 164.119 51.376Z" fill="white"/>
<path d="M170.591 52.93C170.843 52.4913 171.216 52.1273 171.711 51.838C172.215 51.5393 172.798 51.39 173.461 51.39C174.142 51.39 174.758 51.5533 175.309 51.88C175.869 52.2067 176.307 52.6687 176.625 53.266C176.942 53.854 177.101 54.54 177.101 55.324C177.101 56.0987 176.942 56.7893 176.625 57.396C176.307 58.0027 175.869 58.474 175.309 58.81C174.758 59.146 174.142 59.314 173.461 59.314C172.807 59.314 172.229 59.1693 171.725 58.88C171.23 58.5813 170.852 58.2127 170.591 57.774V62.828H169.317V51.516H170.591V52.93ZM175.799 55.324C175.799 54.7453 175.682 54.2413 175.449 53.812C175.215 53.3827 174.898 53.056 174.497 52.832C174.105 52.608 173.671 52.496 173.195 52.496C172.728 52.496 172.294 52.6127 171.893 52.846C171.501 53.07 171.183 53.4013 170.941 53.84C170.707 54.2693 170.591 54.7687 170.591 55.338C170.591 55.9167 170.707 56.4253 170.941 56.864C171.183 57.2933 171.501 57.6247 171.893 57.858C172.294 58.082 172.728 58.194 173.195 58.194C173.671 58.194 174.105 58.082 174.497 57.858C174.898 57.6247 175.215 57.2933 175.449 56.864C175.682 56.4253 175.799 55.912 175.799 55.324Z" fill="white"/>
<path d="M180.051 48.828V59.188H178.777V48.828H180.051Z" fill="white"/>
<path d="M189.223 55.058C189.223 55.3007 189.209 55.5573 189.181 55.828H183.049C183.095 56.584 183.352 57.1767 183.819 57.606C184.295 58.026 184.869 58.236 185.541 58.236C186.091 58.236 186.549 58.11 186.913 57.858C187.286 57.5967 187.547 57.2513 187.697 56.822H189.069C188.863 57.5593 188.453 58.1613 187.837 58.628C187.221 59.0853 186.455 59.314 185.541 59.314C184.813 59.314 184.159 59.1507 183.581 58.824C183.011 58.4973 182.563 58.0353 182.237 57.438C181.91 56.8313 181.747 56.1313 181.747 55.338C181.747 54.5447 181.905 53.8493 182.223 53.252C182.54 52.6547 182.983 52.1973 183.553 51.88C184.131 51.5533 184.794 51.39 185.541 51.39C186.269 51.39 186.913 51.5487 187.473 51.866C188.033 52.1833 188.462 52.622 188.761 53.182C189.069 53.7327 189.223 54.358 189.223 55.058ZM187.907 54.792C187.907 54.3067 187.799 53.8913 187.585 53.546C187.37 53.1913 187.076 52.9253 186.703 52.748C186.339 52.5613 185.933 52.468 185.485 52.468C184.841 52.468 184.29 52.6733 183.833 53.084C183.385 53.4947 183.128 54.064 183.063 54.792H187.907Z" fill="white"/>
<path d="M199.775 59.188L197.451 55.198H195.911V59.188H194.637V49.43H197.787C198.524 49.43 199.145 49.556 199.649 49.808C200.162 50.06 200.545 50.4007 200.797 50.83C201.049 51.2593 201.175 51.7493 201.175 52.3C201.175 52.972 200.979 53.5647 200.587 54.078C200.204 54.5913 199.626 54.932 198.851 55.1L201.301 59.188H199.775ZM195.911 54.176H197.787C198.478 54.176 198.996 54.008 199.341 53.672C199.686 53.3267 199.859 52.8693 199.859 52.3C199.859 51.7213 199.686 51.2733 199.341 50.956C199.005 50.6387 198.487 50.48 197.787 50.48H195.911V54.176Z" fill="white"/>
<path d="M202.678 55.324C202.678 54.54 202.837 53.854 203.154 53.266C203.472 52.6687 203.906 52.2067 204.456 51.88C205.016 51.5533 205.642 51.39 206.332 51.39C206.93 51.39 207.485 51.53 207.998 51.81C208.512 52.0807 208.904 52.44 209.174 52.888V48.828H210.462V59.188H209.174V57.746C208.922 58.2033 208.549 58.5813 208.054 58.88C207.56 59.1693 206.981 59.314 206.318 59.314C205.637 59.314 205.016 59.146 204.456 58.81C203.906 58.474 203.472 58.0027 203.154 57.396C202.837 56.7893 202.678 56.0987 202.678 55.324ZM209.174 55.338C209.174 54.7593 209.058 54.2553 208.824 53.826C208.591 53.3967 208.274 53.07 207.872 52.846C207.48 52.6127 207.046 52.496 206.57 52.496C206.094 52.496 205.66 52.608 205.268 52.832C204.876 53.056 204.564 53.3827 204.33 53.812C204.097 54.2413 203.98 54.7453 203.98 55.324C203.98 55.912 204.097 56.4253 204.33 56.864C204.564 57.2933 204.876 57.6247 205.268 57.858C205.66 58.082 206.094 58.194 206.57 58.194C207.046 58.194 207.48 58.082 207.872 57.858C208.274 57.6247 208.591 57.2933 208.824 56.864C209.058 56.4253 209.174 55.9167 209.174 55.338Z" fill="white"/>
<path d="M213.931 57.424L212.363 61.19H211.509L212.531 57.424H213.931Z" fill="white"/>
<path d="M220.397 52.944C220.659 52.4867 221.041 52.1133 221.545 51.824C222.049 51.5347 222.623 51.39 223.267 51.39C223.958 51.39 224.579 51.5533 225.129 51.88C225.68 52.2067 226.114 52.6687 226.431 53.266C226.749 53.854 226.907 54.54 226.907 55.324C226.907 56.0987 226.749 56.7893 226.431 57.396C226.114 58.0027 225.675 58.474 225.115 58.81C224.565 59.146 223.949 59.314 223.267 59.314C222.605 59.314 222.021 59.1693 221.517 58.88C221.023 58.5907 220.649 58.222 220.397 57.774V59.188H219.123V48.828H220.397V52.944ZM225.605 55.324C225.605 54.7453 225.489 54.2413 225.255 53.812C225.022 53.3827 224.705 53.056 224.303 52.832C223.911 52.608 223.477 52.496 223.001 52.496C222.535 52.496 222.101 52.6127 221.699 52.846C221.307 53.07 220.99 53.4013 220.747 53.84C220.514 54.2693 220.397 54.7687 220.397 55.338C220.397 55.9167 220.514 56.4253 220.747 56.864C220.99 57.2933 221.307 57.6247 221.699 57.858C222.101 58.082 222.535 58.194 223.001 58.194C223.477 58.194 223.911 58.082 224.303 57.858C224.705 57.6247 225.022 57.2933 225.255 56.864C225.489 56.4253 225.605 55.912 225.605 55.324Z" fill="white"/>
<path d="M235.584 55.058C235.584 55.3007 235.57 55.5573 235.542 55.828H229.41C229.457 56.584 229.713 57.1767 230.18 57.606C230.656 58.026 231.23 58.236 231.902 58.236C232.453 58.236 232.91 58.11 233.274 57.858C233.647 57.5967 233.909 57.2513 234.058 56.822H235.43C235.225 57.5593 234.814 58.1613 234.198 58.628C233.582 59.0853 232.817 59.314 231.902 59.314C231.174 59.314 230.521 59.1507 229.942 58.824C229.373 58.4973 228.925 58.0353 228.598 57.438C228.271 56.8313 228.108 56.1313 228.108 55.338C228.108 54.5447 228.267 53.8493 228.584 53.252C228.901 52.6547 229.345 52.1973 229.914 51.88C230.493 51.5533 231.155 51.39 231.902 51.39C232.63 51.39 233.274 51.5487 233.834 51.866C234.394 52.1833 234.823 52.622 235.122 53.182C235.43 53.7327 235.584 54.358 235.584 55.058ZM234.268 54.792C234.268 54.3067 234.161 53.8913 233.946 53.546C233.731 53.1913 233.437 52.9253 233.064 52.748C232.7 52.5613 232.294 52.468 231.846 52.468C231.202 52.468 230.651 52.6733 230.194 53.084C229.746 53.4947 229.489 54.064 229.424 54.792H234.268Z" fill="white"/>
<path d="M239.982 59.314C239.394 59.314 238.866 59.216 238.4 59.02C237.933 58.8147 237.564 58.5347 237.294 58.18C237.023 57.816 236.874 57.4007 236.846 56.934H238.162C238.199 57.3167 238.376 57.6293 238.694 57.872C239.02 58.1147 239.445 58.236 239.968 58.236C240.453 58.236 240.836 58.1287 241.116 57.914C241.396 57.6993 241.536 57.4287 241.536 57.102C241.536 56.766 241.386 56.5187 241.088 56.36C240.789 56.192 240.327 56.0287 239.702 55.87C239.132 55.7207 238.666 55.5713 238.302 55.422C237.947 55.2633 237.639 55.0347 237.378 54.736C237.126 54.428 237 54.0267 237 53.532C237 53.14 237.116 52.7807 237.35 52.454C237.583 52.1273 237.914 51.8707 238.344 51.684C238.773 51.488 239.263 51.39 239.814 51.39C240.663 51.39 241.349 51.6047 241.872 52.034C242.394 52.4633 242.674 53.0513 242.712 53.798H241.438C241.41 53.3967 241.246 53.0747 240.948 52.832C240.658 52.5893 240.266 52.468 239.772 52.468C239.314 52.468 238.95 52.566 238.68 52.762C238.409 52.958 238.274 53.2147 238.274 53.532C238.274 53.784 238.353 53.994 238.512 54.162C238.68 54.3207 238.885 54.4513 239.128 54.554C239.38 54.6473 239.725 54.7547 240.164 54.876C240.714 55.0253 241.162 55.1747 241.508 55.324C241.853 55.464 242.147 55.6787 242.39 55.968C242.642 56.2573 242.772 56.6353 242.782 57.102C242.782 57.522 242.665 57.9 242.432 58.236C242.198 58.572 241.867 58.838 241.438 59.034C241.018 59.2207 240.532 59.314 239.982 59.314Z" fill="white"/>
<path d="M245.238 50.27C244.996 50.27 244.79 50.186 244.622 50.018C244.454 49.85 244.37 49.6447 244.37 49.402C244.37 49.1593 244.454 48.954 244.622 48.786C244.79 48.618 244.996 48.534 245.238 48.534C245.472 48.534 245.668 48.618 245.826 48.786C245.994 48.954 246.078 49.1593 246.078 49.402C246.078 49.6447 245.994 49.85 245.826 50.018C245.668 50.186 245.472 50.27 245.238 50.27ZM245.854 51.516V59.188H244.58V51.516H245.854Z" fill="white"/>
<path d="M247.55 55.324C247.55 54.54 247.708 53.854 248.026 53.266C248.343 52.6687 248.777 52.2067 249.328 51.88C249.888 51.5533 250.513 51.39 251.204 51.39C251.801 51.39 252.356 51.53 252.87 51.81C253.383 52.0807 253.775 52.44 254.046 52.888V48.828H255.334V59.188H254.046V57.746C253.794 58.2033 253.42 58.5813 252.926 58.88C252.431 59.1693 251.852 59.314 251.19 59.314C250.508 59.314 249.888 59.146 249.328 58.81C248.777 58.474 248.343 58.0027 248.026 57.396C247.708 56.7893 247.55 56.0987 247.55 55.324ZM254.046 55.338C254.046 54.7593 253.929 54.2553 253.696 53.826C253.462 53.3967 253.145 53.07 252.744 52.846C252.352 52.6127 251.918 52.496 251.442 52.496C250.966 52.496 250.532 52.608 250.14 52.832C249.748 53.056 249.435 53.3827 249.202 53.812C248.968 54.2413 248.852 54.7453 248.852 55.324C248.852 55.912 248.968 56.4253 249.202 56.864C249.435 57.2933 249.748 57.6247 250.14 57.858C250.532 58.082 250.966 58.194 251.442 58.194C251.918 58.194 252.352 58.082 252.744 57.858C253.145 57.6247 253.462 57.2933 253.696 56.864C253.929 56.4253 254.046 55.9167 254.046 55.338Z" fill="white"/>
<path d="M264.486 55.058C264.486 55.3007 264.472 55.5573 264.444 55.828H258.312C258.359 56.584 258.616 57.1767 259.082 57.606C259.558 58.026 260.132 58.236 260.804 58.236C261.355 58.236 261.812 58.11 262.176 57.858C262.55 57.5967 262.811 57.2513 262.96 56.822H264.332C264.127 57.5593 263.716 58.1613 263.1 58.628C262.484 59.0853 261.719 59.314 260.804 59.314C260.076 59.314 259.423 59.1507 258.844 58.824C258.275 58.4973 257.827 58.0353 257.5 57.438C257.174 56.8313 257.01 56.1313 257.01 55.338C257.01 54.5447 257.169 53.8493 257.486 53.252C257.804 52.6547 258.247 52.1973 258.816 51.88C259.395 51.5533 260.058 51.39 260.804 51.39C261.532 51.39 262.176 51.5487 262.736 51.866C263.296 52.1833 263.726 52.622 264.024 53.182C264.332 53.7327 264.486 54.358 264.486 55.058ZM263.17 54.792C263.17 54.3067 263.063 53.8913 262.848 53.546C262.634 53.1913 262.34 52.9253 261.966 52.748C261.602 52.5613 261.196 52.468 260.748 52.468C260.104 52.468 259.554 52.6733 259.096 53.084C258.648 53.4947 258.392 54.064 258.326 54.792H263.17Z" fill="white"/>
<path d="M275.193 59.188L271.175 54.736V59.188H269.901V49.43H271.175V53.952L275.207 49.43H276.817L272.393 54.316L276.859 59.188H275.193Z" fill="white"/>
<path d="M277.805 55.324C277.805 54.54 277.964 53.854 278.281 53.266C278.599 52.6687 279.033 52.2067 279.583 51.88C280.143 51.5533 280.764 51.39 281.445 51.39C282.117 51.39 282.701 51.5347 283.195 51.824C283.69 52.1133 284.059 52.4773 284.301 52.916V51.516H285.589V59.188H284.301V57.76C284.049 58.208 283.671 58.5813 283.167 58.88C282.673 59.1693 282.094 59.314 281.431 59.314C280.75 59.314 280.134 59.146 279.583 58.81C279.033 58.474 278.599 58.0027 278.281 57.396C277.964 56.7893 277.805 56.0987 277.805 55.324ZM284.301 55.338C284.301 54.7593 284.185 54.2553 283.951 53.826C283.718 53.3967 283.401 53.07 282.999 52.846C282.607 52.6127 282.173 52.496 281.697 52.496C281.221 52.496 280.787 52.608 280.395 52.832C280.003 53.056 279.691 53.3827 279.457 53.812C279.224 54.2413 279.107 54.7453 279.107 55.324C279.107 55.912 279.224 56.4253 279.457 56.864C279.691 57.2933 280.003 57.6247 280.395 57.858C280.787 58.082 281.221 58.194 281.697 58.194C282.173 58.194 282.607 58.082 282.999 57.858C283.401 57.6247 283.718 57.2933 283.951 56.864C284.185 56.4253 284.301 55.9167 284.301 55.338Z" fill="white"/>
<path d="M289.016 48.828V59.188H287.742V48.828H289.016Z" fill="white"/>
<path d="M297.796 51.516L293.176 62.8H291.86L293.372 59.104L290.278 51.516H291.692L294.1 57.732L296.48 51.516H297.796Z" fill="white"/>
<path d="M298.6 55.324C298.6 54.54 298.759 53.854 299.076 53.266C299.394 52.6687 299.828 52.2067 300.378 51.88C300.938 51.5533 301.559 51.39 302.24 51.39C302.912 51.39 303.496 51.5347 303.99 51.824C304.485 52.1133 304.854 52.4773 305.096 52.916V51.516H306.384V59.188H305.096V57.76C304.844 58.208 304.466 58.5813 303.962 58.88C303.468 59.1693 302.889 59.314 302.226 59.314C301.545 59.314 300.929 59.146 300.378 58.81C299.828 58.474 299.394 58.0027 299.076 57.396C298.759 56.7893 298.6 56.0987 298.6 55.324ZM305.096 55.338C305.096 54.7593 304.98 54.2553 304.746 53.826C304.513 53.3967 304.196 53.07 303.794 52.846C303.402 52.6127 302.968 52.496 302.492 52.496C302.016 52.496 301.582 52.608 301.19 52.832C300.798 53.056 300.486 53.3827 300.252 53.812C300.019 54.2413 299.902 54.7453 299.902 55.324C299.902 55.912 300.019 56.4253 300.252 56.864C300.486 57.2933 300.798 57.6247 301.19 57.858C301.582 58.082 302.016 58.194 302.492 58.194C302.968 58.194 303.402 58.082 303.794 57.858C304.196 57.6247 304.513 57.2933 304.746 56.864C304.98 56.4253 305.096 55.9167 305.096 55.338Z" fill="white"/>
<path d="M312.275 51.376C313.209 51.376 313.965 51.6607 314.543 52.23C315.122 52.79 315.411 53.602 315.411 54.666V59.188H314.151V54.848C314.151 54.0827 313.96 53.4993 313.577 53.098C313.195 52.6873 312.672 52.482 312.009 52.482C311.337 52.482 310.801 52.692 310.399 53.112C310.007 53.532 309.811 54.1433 309.811 54.946V59.188H308.537V51.516H309.811V52.608C310.063 52.216 310.404 51.9127 310.833 51.698C311.272 51.4833 311.753 51.376 312.275 51.376Z" fill="white"/>
<path d="M326.139 49.43V56.64C326.139 57.4427 325.891 58.0867 325.397 58.572C324.902 59.048 324.249 59.286 323.437 59.286C322.615 59.286 321.957 59.0433 321.463 58.558C320.968 58.0633 320.721 57.3913 320.721 56.542H321.995C322.004 57.018 322.125 57.4053 322.359 57.704C322.601 58.0027 322.961 58.152 323.437 58.152C323.913 58.152 324.267 58.012 324.501 57.732C324.734 57.4427 324.851 57.0787 324.851 56.64V49.43H326.139Z" fill="white"/>
<path d="M335.649 55.058C335.649 55.3007 335.635 55.5573 335.607 55.828H329.475C329.521 56.584 329.778 57.1767 330.245 57.606C330.721 58.026 331.295 58.236 331.967 58.236C332.517 58.236 332.975 58.11 333.339 57.858C333.712 57.5967 333.973 57.2513 334.123 56.822H335.495C335.289 57.5593 334.879 58.1613 334.263 58.628C333.647 59.0853 332.881 59.314 331.967 59.314C331.239 59.314 330.585 59.1507 330.007 58.824C329.437 58.4973 328.989 58.0353 328.663 57.438C328.336 56.8313 328.173 56.1313 328.173 55.338C328.173 54.5447 328.331 53.8493 328.649 53.252C328.966 52.6547 329.409 52.1973 329.979 51.88C330.557 51.5533 331.22 51.39 331.967 51.39C332.695 51.39 333.339 51.5487 333.899 51.866C334.459 52.1833 334.888 52.622 335.187 53.182C335.495 53.7327 335.649 54.358 335.649 55.058ZM334.333 54.792C334.333 54.3067 334.225 53.8913 334.011 53.546C333.796 53.1913 333.502 52.9253 333.129 52.748C332.765 52.5613 332.359 52.468 331.911 52.468C331.267 52.468 330.716 52.6733 330.259 53.084C329.811 53.4947 329.554 54.064 329.489 54.792H334.333Z" fill="white"/>
<path d="M347.55 51.516L345.156 59.188H343.84L341.992 53.098L340.144 59.188H338.828L336.42 51.516H337.722L339.486 57.956L341.39 51.516H342.692L344.554 57.97L346.29 51.516H347.55Z" fill="white"/>
<path d="M355.815 55.058C355.815 55.3007 355.801 55.5573 355.773 55.828H349.641C349.687 56.584 349.944 57.1767 350.411 57.606C350.887 58.026 351.461 58.236 352.133 58.236C352.683 58.236 353.141 58.11 353.505 57.858C353.878 57.5967 354.139 57.2513 354.289 56.822H355.661C355.455 57.5593 355.045 58.1613 354.429 58.628C353.813 59.0853 353.047 59.314 352.133 59.314C351.405 59.314 350.751 59.1507 350.173 58.824C349.603 58.4973 349.155 58.0353 348.829 57.438C348.502 56.8313 348.339 56.1313 348.339 55.338C348.339 54.5447 348.497 53.8493 348.815 53.252C349.132 52.6547 349.575 52.1973 350.145 51.88C350.723 51.5533 351.386 51.39 352.133 51.39C352.861 51.39 353.505 51.5487 354.065 51.866C354.625 52.1833 355.054 52.622 355.353 53.182C355.661 53.7327 355.815 54.358 355.815 55.058ZM354.499 54.792C354.499 54.3067 354.391 53.8913 354.177 53.546C353.962 53.1913 353.668 52.9253 353.295 52.748C352.931 52.5613 352.525 52.468 352.077 52.468C351.433 52.468 350.882 52.6733 350.425 53.084C349.977 53.4947 349.72 54.064 349.655 54.792H354.499Z" fill="white"/>
<path d="M358.77 48.828V59.188H357.496V48.828H358.77Z" fill="white"/>
<path d="M362.216 48.828V59.188H360.942V48.828H362.216Z" fill="white"/>
<path d="M371.387 55.058C371.387 55.3007 371.373 55.5573 371.345 55.828H365.213C365.26 56.584 365.516 57.1767 365.983 57.606C366.459 58.026 367.033 58.236 367.705 58.236C368.256 58.236 368.713 58.11 369.077 57.858C369.45 57.5967 369.712 57.2513 369.861 56.822H371.233C371.028 57.5593 370.617 58.1613 370.001 58.628C369.385 59.0853 368.62 59.314 367.705 59.314C366.977 59.314 366.324 59.1507 365.745 58.824C365.176 58.4973 364.728 58.0353 364.401 57.438C364.074 56.8313 363.911 56.1313 363.911 55.338C363.911 54.5447 364.07 53.8493 364.387 53.252C364.704 52.6547 365.148 52.1973 365.717 51.88C366.296 51.5533 366.958 51.39 367.705 51.39C368.433 51.39 369.077 51.5487 369.637 51.866C370.197 52.1833 370.626 52.622 370.925 53.182C371.233 53.7327 371.387 54.358 371.387 55.058ZM370.071 54.792C370.071 54.3067 369.964 53.8913 369.749 53.546C369.534 53.1913 369.24 52.9253 368.867 52.748C368.503 52.5613 368.097 52.468 367.649 52.468C367.005 52.468 366.454 52.6733 365.997 53.084C365.549 53.4947 365.292 54.064 365.227 54.792H370.071Z" fill="white"/>
<path d="M374.342 52.762C374.566 52.3233 374.884 51.9827 375.294 51.74C375.714 51.4973 376.223 51.376 376.82 51.376V52.692H376.484C375.056 52.692 374.342 53.4667 374.342 55.016V59.188H373.069V51.516H374.342V52.762Z" fill="white"/>
<path d="M381.007 59.314C380.419 59.314 379.892 59.216 379.425 59.02C378.959 58.8147 378.59 58.5347 378.319 58.18C378.048 57.816 377.899 57.4007 377.871 56.934H379.187C379.224 57.3167 379.402 57.6293 379.719 57.872C380.046 58.1147 380.47 58.236 380.993 58.236C381.478 58.236 381.861 58.1287 382.141 57.914C382.421 57.6993 382.561 57.4287 382.561 57.102C382.561 56.766 382.412 56.5187 382.113 56.36C381.814 56.192 381.353 56.0287 380.727 55.87C380.158 55.7207 379.691 55.5713 379.327 55.422C378.973 55.2633 378.665 55.0347 378.403 54.736C378.151 54.428 378.025 54.0267 378.025 53.532C378.025 53.14 378.142 52.7807 378.375 52.454C378.608 52.1273 378.94 51.8707 379.369 51.684C379.799 51.488 380.289 51.39 380.839 51.39C381.689 51.39 382.374 51.6047 382.897 52.034C383.42 52.4633 383.7 53.0513 383.737 53.798H382.463C382.435 53.3967 382.272 53.0747 381.973 52.832C381.684 52.5893 381.292 52.468 380.797 52.468C380.34 52.468 379.976 52.566 379.705 52.762C379.435 52.958 379.299 53.2147 379.299 53.532C379.299 53.784 379.379 53.994 379.537 54.162C379.705 54.3207 379.911 54.4513 380.153 54.554C380.405 54.6473 380.751 54.7547 381.189 54.876C381.74 55.0253 382.188 55.1747 382.533 55.324C382.879 55.464 383.172 55.6787 383.415 55.968C383.667 56.2573 383.798 56.6353 383.807 57.102C383.807 57.522 383.69 57.9 383.457 58.236C383.224 58.572 382.892 58.838 382.463 59.034C382.043 59.2207 381.558 59.314 381.007 59.314Z" fill="white"/>
<path d="M386.922 57.424L385.354 61.19H384.5L385.522 57.424H386.922Z" fill="white"/>
<path d="M13.02 91.43L10.192 101.188H8.764L6.496 93.334L4.144 101.188L2.73 101.202L0 91.43H1.358L3.486 99.704L5.838 91.43H7.266L9.506 99.676L11.648 91.43H13.02Z" fill="white"/>
<path d="M13.9382 97.324C13.9382 96.54 14.0969 95.854 14.4142 95.266C14.7315 94.6687 15.1655 94.2067 15.7162 93.88C16.2762 93.5533 16.8969 93.39 17.5782 93.39C18.2502 93.39 18.8335 93.5347 19.3282 93.824C19.8229 94.1133 20.1915 94.4773 20.4342 94.916V93.516H21.7222V101.188H20.4342V99.76C20.1822 100.208 19.8042 100.581 19.3002 100.88C18.8055 101.169 18.2269 101.314 17.5642 101.314C16.8829 101.314 16.2669 101.146 15.7162 100.81C15.1655 100.474 14.7315 100.003 14.4142 99.396C14.0969 98.7893 13.9382 98.0987 13.9382 97.324ZM20.4342 97.338C20.4342 96.7593 20.3175 96.2553 20.0842 95.826C19.8509 95.3967 19.5335 95.07 19.1322 94.846C18.7402 94.6127 18.3062 94.496 17.8302 94.496C17.3542 94.496 16.9202 94.608 16.5282 94.832C16.1362 95.056 15.8235 95.3827 15.5902 95.812C15.3569 96.2413 15.2402 96.7453 15.2402 97.324C15.2402 97.912 15.3569 98.4253 15.5902 98.864C15.8235 99.2933 16.1362 99.6247 16.5282 99.858C16.9202 100.082 17.3542 100.194 17.8302 100.194C18.3062 100.194 18.7402 100.082 19.1322 99.858C19.5335 99.6247 19.8509 99.2933 20.0842 98.864C20.3175 98.4253 20.4342 97.9167 20.4342 97.338Z" fill="white"/>
<path d="M25.1491 90.828V101.188H23.8751V90.828H25.1491Z" fill="white"/>
<path d="M28.8745 94.566V99.088C28.8745 99.4613 28.9538 99.7273 29.1125 99.886C29.2711 100.035 29.5465 100.11 29.9385 100.11H30.8765V101.188H29.7285C29.0191 101.188 28.4871 101.025 28.1325 100.698C27.7778 100.371 27.6005 99.8347 27.6005 99.088V94.566H26.6065V93.516H27.6005V91.584H28.8745V93.516H30.8765V94.566H28.8745Z" fill="white"/>
<path d="M31.9441 97.324C31.9441 96.54 32.1027 95.854 32.4201 95.266C32.7374 94.6687 33.1714 94.2067 33.7221 93.88C34.2821 93.5533 34.9027 93.39 35.5841 93.39C36.2561 93.39 36.8394 93.5347 37.3341 93.824C37.8287 94.1133 38.1974 94.4773 38.4401 94.916V93.516H39.7281V101.188H38.4401V99.76C38.1881 100.208 37.8101 100.581 37.3061 100.88C36.8114 101.169 36.2327 101.314 35.5701 101.314C34.8887 101.314 34.2727 101.146 33.7221 100.81C33.1714 100.474 32.7374 100.003 32.4201 99.396C32.1027 98.7893 31.9441 98.0987 31.9441 97.324ZM38.4401 97.338C38.4401 96.7593 38.3234 96.2553 38.0901 95.826C37.8567 95.3967 37.5394 95.07 37.1381 94.846C36.7461 94.6127 36.3121 94.496 35.8361 94.496C35.3601 94.496 34.9261 94.608 34.5341 94.832C34.1421 95.056 33.8294 95.3827 33.5961 95.812C33.3627 96.2413 33.2461 96.7453 33.2461 97.324C33.2461 97.912 33.3627 98.4253 33.5961 98.864C33.8294 99.2933 34.1421 99.6247 34.5341 99.858C34.9261 100.082 35.3601 100.194 35.8361 100.194C36.3121 100.194 36.7461 100.082 37.1381 99.858C37.5394 99.6247 37.8567 99.2933 38.0901 98.864C38.3234 98.4253 38.4401 97.9167 38.4401 97.338Z" fill="white"/>
<path d="M42.539 92.27C42.2963 92.27 42.091 92.186 41.923 92.018C41.755 91.85 41.671 91.6447 41.671 91.402C41.671 91.1593 41.755 90.954 41.923 90.786C42.091 90.618 42.2963 90.534 42.539 90.534C42.7723 90.534 42.9683 90.618 43.127 90.786C43.295 90.954 43.379 91.1593 43.379 91.402C43.379 91.6447 43.295 91.85 43.127 92.018C42.9683 92.186 42.7723 92.27 42.539 92.27ZM43.155 93.516V101.188H41.881V93.516H43.155Z" fill="white"/>
<path d="M46.6003 94.762C46.8243 94.3233 47.1416 93.9827 47.5523 93.74C47.9723 93.4973 48.481 93.376 49.0783 93.376V94.692H48.7423C47.3143 94.692 46.6003 95.4667 46.6003 97.016V101.188H45.3263V93.516H46.6003V94.762Z" fill="white"/>
<path d="M55.5274 91.43V97.604C55.5274 98.472 55.7374 99.116 56.1574 99.536C56.5867 99.956 57.1794 100.166 57.9354 100.166C58.6821 100.166 59.2654 99.956 59.6854 99.536C60.1147 99.116 60.3294 98.472 60.3294 97.604V91.43H61.6034V97.59C61.6034 98.402 61.4401 99.088 61.1134 99.648C60.7867 100.199 60.3434 100.609 59.7834 100.88C59.2327 101.151 58.6121 101.286 57.9214 101.286C57.2307 101.286 56.6054 101.151 56.0454 100.88C55.4947 100.609 55.0561 100.199 54.7294 99.648C54.4121 99.088 54.2534 98.402 54.2534 97.59V91.43H55.5274Z" fill="white"/>
<path d="M65.0027 94.93C65.2547 94.4913 65.628 94.1273 66.1227 93.838C66.6267 93.5393 67.21 93.39 67.8727 93.39C68.554 93.39 69.17 93.5533 69.7207 93.88C70.2807 94.2067 70.7193 94.6687 71.0367 95.266C71.354 95.854 71.5127 96.54 71.5127 97.324C71.5127 98.0987 71.354 98.7893 71.0367 99.396C70.7193 100.003 70.2807 100.474 69.7207 100.81C69.17 101.146 68.554 101.314 67.8727 101.314C67.2193 101.314 66.6407 101.169 66.1367 100.88C65.642 100.581 65.264 100.213 65.0027 99.774V104.828H63.7287V93.516H65.0027V94.93ZM70.2107 97.324C70.2107 96.7453 70.094 96.2413 69.8607 95.812C69.6273 95.3827 69.31 95.056 68.9087 94.832C68.5167 94.608 68.0827 94.496 67.6067 94.496C67.14 94.496 66.706 94.6127 66.3047 94.846C65.9127 95.07 65.5953 95.4013 65.3527 95.84C65.1193 96.2693 65.0027 96.7687 65.0027 97.338C65.0027 97.9167 65.1193 98.4253 65.3527 98.864C65.5953 99.2933 65.9127 99.6247 66.3047 99.858C66.706 100.082 67.14 100.194 67.6067 100.194C68.0827 100.194 68.5167 100.082 68.9087 99.858C69.31 99.6247 69.6273 99.2933 69.8607 98.864C70.094 98.4253 70.2107 97.912 70.2107 97.324Z" fill="white"/>
<path d="M74.4636 90.828V101.188H73.1896V90.828H74.4636Z" fill="white"/>
<path d="M76.1589 97.324C76.1589 96.54 76.3176 95.854 76.6349 95.266C76.9522 94.6687 77.3862 94.2067 77.9369 93.88C78.4969 93.5533 79.1176 93.39 79.7989 93.39C80.4709 93.39 81.0542 93.5347 81.5489 93.824C82.0436 94.1133 82.4122 94.4773 82.6549 94.916V93.516H83.9429V101.188H82.6549V99.76C82.4029 100.208 82.0249 100.581 81.5209 100.88C81.0262 101.169 80.4476 101.314 79.7849 101.314C79.1036 101.314 78.4876 101.146 77.9369 100.81C77.3862 100.474 76.9522 100.003 76.6349 99.396C76.3176 98.7893 76.1589 98.0987 76.1589 97.324ZM82.6549 97.338C82.6549 96.7593 82.5382 96.2553 82.3049 95.826C82.0716 95.3967 81.7542 95.07 81.3529 94.846C80.9609 94.6127 80.5269 94.496 80.0509 94.496C79.5749 94.496 79.1409 94.608 78.7489 94.832C78.3569 95.056 78.0442 95.3827 77.8109 95.812C77.5776 96.2413 77.4609 96.7453 77.4609 97.324C77.4609 97.912 77.5776 98.4253 77.8109 98.864C78.0442 99.2933 78.3569 99.6247 78.7489 99.858C79.1409 100.082 79.5749 100.194 80.0509 100.194C80.5269 100.194 80.9609 100.082 81.3529 99.858C81.7542 99.6247 82.0716 99.2933 82.3049 98.864C82.5382 98.4253 82.6549 97.9167 82.6549 97.338Z" fill="white"/>
<path d="M89.8338 93.376C90.7672 93.376 91.5232 93.6607 92.1018 94.23C92.6805 94.79 92.9698 95.602 92.9698 96.666V101.188H91.7098V96.848C91.7098 96.0827 91.5185 95.4993 91.1358 95.098C90.7532 94.6873 90.2305 94.482 89.5678 94.482C88.8958 94.482 88.3592 94.692 87.9578 95.112C87.5658 95.532 87.3698 96.1433 87.3698 96.946V101.188H86.0958V93.516H87.3698V94.608C87.6218 94.216 87.9625 93.9127 88.3918 93.698C88.8305 93.4833 89.3112 93.376 89.8338 93.376Z" fill="white"/>
<path d="M94.5749 97.324C94.5749 96.54 94.7336 95.854 95.0509 95.266C95.3683 94.6687 95.8023 94.2067 96.3529 93.88C96.9129 93.5533 97.5383 93.39 98.2289 93.39C98.8263 93.39 99.3816 93.53 99.8949 93.81C100.408 94.0807 100.8 94.44 101.071 94.888V90.828H102.359V101.188H101.071V99.746C100.819 100.203 100.446 100.581 99.9509 100.88C99.4563 101.169 98.8776 101.314 98.2149 101.314C97.5336 101.314 96.9129 101.146 96.3529 100.81C95.8023 100.474 95.3683 100.003 95.0509 99.396C94.7336 98.7893 94.5749 98.0987 94.5749 97.324ZM101.071 97.338C101.071 96.7593 100.954 96.2553 100.721 95.826C100.488 95.3967 100.17 95.07 99.7689 94.846C99.3769 94.6127 98.9429 94.496 98.4669 94.496C97.9909 94.496 97.5569 94.608 97.1649 94.832C96.7729 95.056 96.4603 95.3827 96.2269 95.812C95.9936 96.2413 95.8769 96.7453 95.8769 97.324C95.8769 97.912 95.9936 98.4253 96.2269 98.864C96.4603 99.2933 96.7729 99.6247 97.1649 99.858C97.5569 100.082 97.9909 100.194 98.4669 100.194C98.9429 100.194 99.3769 100.082 99.7689 99.858C100.17 99.6247 100.488 99.2933 100.721 98.864C100.954 98.4253 101.071 97.9167 101.071 97.338Z" fill="white"/>
<path d="M107.228 101.314C106.64 101.314 106.113 101.216 105.646 101.02C105.179 100.815 104.811 100.535 104.54 100.18C104.269 99.816 104.12 99.4007 104.092 98.934H105.408C105.445 99.3167 105.623 99.6293 105.94 99.872C106.267 100.115 106.691 100.236 107.214 100.236C107.699 100.236 108.082 100.129 108.362 99.914C108.642 99.6993 108.782 99.4287 108.782 99.102C108.782 98.766 108.633 98.5187 108.334 98.36C108.035 98.192 107.573 98.0287 106.948 97.87C106.379 97.7207 105.912 97.5713 105.548 97.422C105.193 97.2633 104.885 97.0347 104.624 96.736C104.372 96.428 104.246 96.0267 104.246 95.532C104.246 95.14 104.363 94.7807 104.596 94.454C104.829 94.1273 105.161 93.8707 105.59 93.684C106.019 93.488 106.509 93.39 107.06 93.39C107.909 93.39 108.595 93.6047 109.118 94.034C109.641 94.4633 109.921 95.0513 109.958 95.798H108.684C108.656 95.3967 108.493 95.0747 108.194 94.832C107.905 94.5893 107.513 94.468 107.018 94.468C106.561 94.468 106.197 94.566 105.926 94.762C105.655 94.958 105.52 95.2147 105.52 95.532C105.52 95.784 105.599 95.994 105.758 96.162C105.926 96.3207 106.131 96.4513 106.374 96.554C106.626 96.6473 106.971 96.7547 107.41 96.876C107.961 97.0253 108.409 97.1747 108.754 97.324C109.099 97.464 109.393 97.6787 109.636 97.968C109.888 98.2573 110.019 98.6353 110.028 99.102C110.028 99.522 109.911 99.9 109.678 100.236C109.445 100.572 109.113 100.838 108.684 101.034C108.264 101.221 107.779 101.314 107.228 101.314Z" fill="white"/>
<path d="M113.142 99.424L111.574 103.19H110.72L111.742 99.424H113.142Z" fill="white"/>
<path d="M124.102 99.018H119.846L119.062 101.188H117.718L121.246 91.486H122.716L126.23 101.188H124.886L124.102 99.018ZM123.738 97.982L121.974 93.054L120.21 97.982H123.738Z" fill="white"/>
<path d="M130.484 101.314C129.896 101.314 129.368 101.216 128.902 101.02C128.435 100.815 128.066 100.535 127.796 100.18C127.525 99.816 127.376 99.4007 127.348 98.934H128.664C128.701 99.3167 128.878 99.6293 129.196 99.872C129.522 100.115 129.947 100.236 130.47 100.236C130.955 100.236 131.338 100.129 131.618 99.914C131.898 99.6993 132.038 99.4287 132.038 99.102C132.038 98.766 131.888 98.5187 131.59 98.36C131.291 98.192 130.829 98.0287 130.204 97.87C129.634 97.7207 129.168 97.5713 128.804 97.422C128.449 97.2633 128.141 97.0347 127.88 96.736C127.628 96.428 127.502 96.0267 127.502 95.532C127.502 95.14 127.618 94.7807 127.852 94.454C128.085 94.1273 128.416 93.8707 128.846 93.684C129.275 93.488 129.765 93.39 130.316 93.39C131.165 93.39 131.851 93.6047 132.374 94.034C132.896 94.4633 133.176 95.0513 133.214 95.798H131.94C131.912 95.3967 131.748 95.0747 131.45 94.832C131.16 94.5893 130.768 94.468 130.274 94.468C129.816 94.468 129.452 94.566 129.182 94.762C128.911 94.958 128.776 95.2147 128.776 95.532C128.776 95.784 128.855 95.994 129.014 96.162C129.182 96.3207 129.387 96.4513 129.63 96.554C129.882 96.6473 130.227 96.7547 130.666 96.876C131.216 97.0253 131.664 97.1747 132.01 97.324C132.355 97.464 132.649 97.6787 132.892 97.968C133.144 98.2573 133.274 98.6353 133.284 99.102C133.284 99.522 133.167 99.9 132.934 100.236C132.7 100.572 132.369 100.838 131.94 101.034C131.52 101.221 131.034 101.314 130.484 101.314Z" fill="white"/>
<path d="M135.74 92.27C135.498 92.27 135.292 92.186 135.124 92.018C134.956 91.85 134.872 91.6447 134.872 91.402C134.872 91.1593 134.956 90.954 135.124 90.786C135.292 90.618 135.498 90.534 135.74 90.534C135.974 90.534 136.17 90.618 136.328 90.786C136.496 90.954 136.58 91.1593 136.58 91.402C136.58 91.6447 136.496 91.85 136.328 92.018C136.17 92.186 135.974 92.27 135.74 92.27ZM136.356 93.516V101.188H135.082V93.516H136.356Z" fill="white"/>
<path d="M139.801 90.828V101.188H138.527V90.828H139.801Z" fill="white"/>
<path d="M151.199 93.376C151.796 93.376 152.328 93.502 152.795 93.754C153.261 93.9967 153.63 94.3653 153.901 94.86C154.171 95.3547 154.307 95.9567 154.307 96.666V101.188H153.047V96.848C153.047 96.0827 152.855 95.4993 152.473 95.098C152.099 94.6873 151.591 94.482 150.947 94.482C150.284 94.482 149.757 94.6967 149.365 95.126C148.973 95.546 148.777 96.1573 148.777 96.96V101.188H147.517V96.848C147.517 96.0827 147.325 95.4993 146.943 95.098C146.569 94.6873 146.061 94.482 145.417 94.482C144.754 94.482 144.227 94.6967 143.835 95.126C143.443 95.546 143.247 96.1573 143.247 96.96V101.188H141.973V93.516H143.247V94.622C143.499 94.2207 143.835 93.9127 144.255 93.698C144.684 93.4833 145.155 93.376 145.669 93.376C146.313 93.376 146.882 93.5207 147.377 93.81C147.871 94.0993 148.24 94.524 148.483 95.084C148.697 94.5427 149.052 94.1227 149.547 93.824C150.041 93.5253 150.592 93.376 151.199 93.376Z" fill="white"/>
<path d="M163.397 97.058C163.397 97.3007 163.383 97.5573 163.355 97.828H157.223C157.269 98.584 157.526 99.1767 157.993 99.606C158.469 100.026 159.043 100.236 159.715 100.236C160.265 100.236 160.723 100.11 161.087 99.858C161.46 99.5967 161.721 99.2513 161.871 98.822H163.243C163.037 99.5593 162.627 100.161 162.011 100.628C161.395 101.085 160.629 101.314 159.715 101.314C158.987 101.314 158.333 101.151 157.755 100.824C157.185 100.497 156.737 100.035 156.411 99.438C156.084 98.8313 155.921 98.1313 155.921 97.338C155.921 96.5447 156.079 95.8493 156.397 95.252C156.714 94.6547 157.157 94.1973 157.727 93.88C158.305 93.5533 158.968 93.39 159.715 93.39C160.443 93.39 161.087 93.5487 161.647 93.866C162.207 94.1833 162.636 94.622 162.935 95.182C163.243 95.7327 163.397 96.358 163.397 97.058ZM162.081 96.792C162.081 96.3067 161.973 95.8913 161.759 95.546C161.544 95.1913 161.25 94.9253 160.877 94.748C160.513 94.5613 160.107 94.468 159.659 94.468C159.015 94.468 158.464 94.6733 158.007 95.084C157.559 95.4947 157.302 96.064 157.237 96.792H162.081Z" fill="white"/>
<path d="M166.632 94.566V99.088C166.632 99.4613 166.712 99.7273 166.87 99.886C167.029 100.035 167.304 100.11 167.696 100.11H168.634V101.188H167.486C166.777 101.188 166.245 101.025 165.89 100.698C165.536 100.371 165.358 99.8347 165.358 99.088V94.566H164.364V93.516H165.358V91.584H166.632V93.516H168.634V94.566H166.632Z" fill="white"/>
<path d="M171.732 94.566V99.088C171.732 99.4613 171.811 99.7273 171.97 99.886C172.129 100.035 172.404 100.11 172.796 100.11H173.734V101.188H172.586C171.877 101.188 171.345 101.025 170.99 100.698C170.635 100.371 170.458 99.8347 170.458 99.088V94.566H169.464V93.516H170.458V91.584H171.732V93.516H173.734V94.566H171.732Z" fill="white"/>
<path d="M174.801 97.324C174.801 96.54 174.96 95.854 175.277 95.266C175.595 94.6687 176.029 94.2067 176.579 93.88C177.139 93.5533 177.76 93.39 178.441 93.39C179.113 93.39 179.697 93.5347 180.191 93.824C180.686 94.1133 181.055 94.4773 181.297 94.916V93.516H182.585V101.188H181.297V99.76C181.045 100.208 180.667 100.581 180.163 100.88C179.669 101.169 179.09 101.314 178.427 101.314C177.746 101.314 177.13 101.146 176.579 100.81C176.029 100.474 175.595 100.003 175.277 99.396C174.96 98.7893 174.801 98.0987 174.801 97.324ZM181.297 97.338C181.297 96.7593 181.181 96.2553 180.947 95.826C180.714 95.3967 180.397 95.07 179.995 94.846C179.603 94.6127 179.169 94.496 178.693 94.496C178.217 94.496 177.783 94.608 177.391 94.832C176.999 95.056 176.687 95.3827 176.453 95.812C176.22 96.2413 176.103 96.7453 176.103 97.324C176.103 97.912 176.22 98.4253 176.453 98.864C176.687 99.2933 176.999 99.6247 177.391 99.858C177.783 100.082 178.217 100.194 178.693 100.194C179.169 100.194 179.603 100.082 179.995 99.858C180.397 99.6247 180.714 99.2933 180.947 98.864C181.181 98.4253 181.297 97.9167 181.297 97.338Z" fill="white"/>
<path d="M186.054 99.424L184.486 103.19H183.632L184.654 99.424H186.054Z" fill="white"/>
<path d="M199.31 91.43L195.628 101.188H194.158L190.476 91.43H191.834L194.9 99.844L197.966 91.43H199.31Z" fill="white"/>
<path d="M201.365 92.27C201.123 92.27 200.917 92.186 200.749 92.018C200.581 91.85 200.497 91.6447 200.497 91.402C200.497 91.1593 200.581 90.954 200.749 90.786C200.917 90.618 201.123 90.534 201.365 90.534C201.599 90.534 201.795 90.618 201.953 90.786C202.121 90.954 202.205 91.1593 202.205 91.402C202.205 91.6447 202.121 91.85 201.953 92.018C201.795 92.186 201.599 92.27 201.365 92.27ZM201.981 93.516V101.188H200.707V93.516H201.981Z" fill="white"/>
<path d="M206.868 101.314C206.28 101.314 205.753 101.216 205.286 101.02C204.82 100.815 204.451 100.535 204.18 100.18C203.91 99.816 203.76 99.4007 203.732 98.934H205.048C205.086 99.3167 205.263 99.6293 205.58 99.872C205.907 100.115 206.332 100.236 206.854 100.236C207.34 100.236 207.722 100.129 208.002 99.914C208.282 99.6993 208.422 99.4287 208.422 99.102C208.422 98.766 208.273 98.5187 207.974 98.36C207.676 98.192 207.214 98.0287 206.588 97.87C206.019 97.7207 205.552 97.5713 205.188 97.422C204.834 97.2633 204.526 97.0347 204.264 96.736C204.012 96.428 203.886 96.0267 203.886 95.532C203.886 95.14 204.003 94.7807 204.236 94.454C204.47 94.1273 204.801 93.8707 205.23 93.684C205.66 93.488 206.15 93.39 206.7 93.39C207.55 93.39 208.236 93.6047 208.758 94.034C209.281 94.4633 209.561 95.0513 209.598 95.798H208.324C208.296 95.3967 208.133 95.0747 207.834 94.832C207.545 94.5893 207.153 94.468 206.658 94.468C206.201 94.468 205.837 94.566 205.566 94.762C205.296 94.958 205.16 95.2147 205.16 95.532C205.16 95.784 205.24 95.994 205.398 96.162C205.566 96.3207 205.772 96.4513 206.014 96.554C206.266 96.6473 206.612 96.7547 207.05 96.876C207.601 97.0253 208.049 97.1747 208.394 97.324C208.74 97.464 209.034 97.6787 209.276 97.968C209.528 98.2573 209.659 98.6353 209.668 99.102C209.668 99.522 209.552 99.9 209.318 100.236C209.085 100.572 208.754 100.838 208.324 101.034C207.904 101.221 207.419 101.314 206.868 101.314Z" fill="white"/>
<path d="M210.991 97.324C210.991 96.54 211.15 95.854 211.467 95.266C211.784 94.6687 212.218 94.2067 212.769 93.88C213.329 93.5533 213.95 93.39 214.631 93.39C215.303 93.39 215.886 93.5347 216.381 93.824C216.876 94.1133 217.244 94.4773 217.487 94.916V93.516H218.775V101.188H217.487V99.76C217.235 100.208 216.857 100.581 216.353 100.88C215.858 101.169 215.28 101.314 214.617 101.314C213.936 101.314 213.32 101.146 212.769 100.81C212.218 100.474 211.784 100.003 211.467 99.396C211.15 98.7893 210.991 98.0987 210.991 97.324ZM217.487 97.338C217.487 96.7593 217.37 96.2553 217.137 95.826C216.904 95.3967 216.586 95.07 216.185 94.846C215.793 94.6127 215.359 94.496 214.883 94.496C214.407 94.496 213.973 94.608 213.581 94.832C213.189 95.056 212.876 95.3827 212.643 95.812C212.41 96.2413 212.293 96.7453 212.293 97.324C212.293 97.912 212.41 98.4253 212.643 98.864C212.876 99.2933 213.189 99.6247 213.581 99.858C213.973 100.082 214.407 100.194 214.883 100.194C215.359 100.194 215.793 100.082 216.185 99.858C216.586 99.6247 216.904 99.2933 217.137 98.864C217.37 98.4253 217.487 97.9167 217.487 97.338Z" fill="white"/>
<path d="M225.212 101.188L222.202 97.8V101.188H220.928V90.828H222.202V96.918L225.156 93.516H226.934L223.322 97.338L226.948 101.188H225.212Z" fill="white"/>
<path d="M231.941 93.376C232.52 93.376 233.042 93.502 233.509 93.754C233.976 93.9967 234.34 94.3653 234.601 94.86C234.872 95.3547 235.007 95.9567 235.007 96.666V101.188H233.747V96.848C233.747 96.0827 233.556 95.4993 233.173 95.098C232.79 94.6873 232.268 94.482 231.605 94.482C230.933 94.482 230.396 94.692 229.995 95.112C229.603 95.532 229.407 96.1433 229.407 96.946V101.188H228.133V90.828H229.407V94.608C229.659 94.216 230.004 93.9127 230.443 93.698C230.891 93.4833 231.39 93.376 231.941 93.376Z" fill="white"/>
<path d="M236.612 97.324C236.612 96.54 236.771 95.854 237.088 95.266C237.405 94.6687 237.839 94.2067 238.39 93.88C238.95 93.5533 239.571 93.39 240.252 93.39C240.924 93.39 241.507 93.5347 242.002 93.824C242.497 94.1133 242.865 94.4773 243.108 94.916V93.516H244.396V101.188H243.108V99.76C242.856 100.208 242.478 100.581 241.974 100.88C241.479 101.169 240.901 101.314 240.238 101.314C239.557 101.314 238.941 101.146 238.39 100.81C237.839 100.474 237.405 100.003 237.088 99.396C236.771 98.7893 236.612 98.0987 236.612 97.324ZM243.108 97.338C243.108 96.7593 242.991 96.2553 242.758 95.826C242.525 95.3967 242.207 95.07 241.806 94.846C241.414 94.6127 240.98 94.496 240.504 94.496C240.028 94.496 239.594 94.608 239.202 94.832C238.81 95.056 238.497 95.3827 238.264 95.812C238.031 96.2413 237.914 96.7453 237.914 97.324C237.914 97.912 238.031 98.4253 238.264 98.864C238.497 99.2933 238.81 99.6247 239.202 99.858C239.594 100.082 240.028 100.194 240.504 100.194C240.98 100.194 241.414 100.082 241.806 99.858C242.207 99.6247 242.525 99.2933 242.758 98.864C242.991 98.4253 243.108 97.9167 243.108 97.338Z" fill="white"/>
<path d="M247.823 94.93C248.075 94.4913 248.448 94.1273 248.943 93.838C249.447 93.5393 250.03 93.39 250.693 93.39C251.374 93.39 251.99 93.5533 252.541 93.88C253.101 94.2067 253.54 94.6687 253.857 95.266C254.174 95.854 254.333 96.54 254.333 97.324C254.333 98.0987 254.174 98.7893 253.857 99.396C253.54 100.003 253.101 100.474 252.541 100.81C251.99 101.146 251.374 101.314 250.693 101.314C250.04 101.314 249.461 101.169 248.957 100.88C248.462 100.581 248.084 100.213 247.823 99.774V104.828H246.549V93.516H247.823V94.93ZM253.031 97.324C253.031 96.7453 252.914 96.2413 252.681 95.812C252.448 95.3827 252.13 95.056 251.729 94.832C251.337 94.608 250.903 94.496 250.427 94.496C249.96 94.496 249.526 94.6127 249.125 94.846C248.733 95.07 248.416 95.4013 248.173 95.84C247.94 96.2693 247.823 96.7687 247.823 97.338C247.823 97.9167 247.94 98.4253 248.173 98.864C248.416 99.2933 248.733 99.6247 249.125 99.858C249.526 100.082 249.96 100.194 250.427 100.194C250.903 100.194 251.337 100.082 251.729 99.858C252.13 99.6247 252.448 99.2933 252.681 98.864C252.914 98.4253 253.031 97.912 253.031 97.324Z" fill="white"/>
<path d="M255.534 97.324C255.534 96.54 255.693 95.854 256.01 95.266C256.327 94.6687 256.761 94.2067 257.312 93.88C257.872 93.5533 258.493 93.39 259.174 93.39C259.846 93.39 260.429 93.5347 260.924 93.824C261.419 94.1133 261.787 94.4773 262.03 94.916V93.516H263.318V101.188H262.03V99.76C261.778 100.208 261.4 100.581 260.896 100.88C260.401 101.169 259.823 101.314 259.16 101.314C258.479 101.314 257.863 101.146 257.312 100.81C256.761 100.474 256.327 100.003 256.01 99.396C255.693 98.7893 255.534 98.0987 255.534 97.324ZM262.03 97.338C262.03 96.7593 261.913 96.2553 261.68 95.826C261.447 95.3967 261.129 95.07 260.728 94.846C260.336 94.6127 259.902 94.496 259.426 94.496C258.95 94.496 258.516 94.608 258.124 94.832C257.732 95.056 257.419 95.3827 257.186 95.812C256.953 96.2413 256.836 96.7453 256.836 97.324C256.836 97.912 256.953 98.4253 257.186 98.864C257.419 99.2933 257.732 99.6247 258.124 99.858C258.516 100.082 258.95 100.194 259.426 100.194C259.902 100.194 260.336 100.082 260.728 99.858C261.129 99.6247 261.447 99.2933 261.68 98.864C261.913 98.4253 262.03 97.9167 262.03 97.338Z" fill="white"/>
<path d="M267.025 94.566V99.088C267.025 99.4613 267.104 99.7273 267.263 99.886C267.422 100.035 267.697 100.11 268.089 100.11H269.027V101.188H267.879C267.17 101.188 266.638 101.025 266.283 100.698C265.928 100.371 265.751 99.8347 265.751 99.088V94.566H264.757V93.516H265.751V91.584H267.025V93.516H269.027V94.566H267.025Z" fill="white"/>
<path d="M274.308 93.376C275.242 93.376 275.998 93.6607 276.576 94.23C277.155 94.79 277.444 95.602 277.444 96.666V101.188H276.184V96.848C276.184 96.0827 275.993 95.4993 275.61 95.098C275.228 94.6873 274.705 94.482 274.042 94.482C273.37 94.482 272.834 94.692 272.432 95.112C272.04 95.532 271.844 96.1433 271.844 96.946V101.188H270.57V93.516H271.844V94.608C272.096 94.216 272.437 93.9127 272.866 93.698C273.305 93.4833 273.786 93.376 274.308 93.376Z" fill="white"/>
<path d="M279.05 97.324C279.05 96.54 279.208 95.854 279.526 95.266C279.843 94.6687 280.277 94.2067 280.828 93.88C281.388 93.5533 282.008 93.39 282.69 93.39C283.362 93.39 283.945 93.5347 284.44 93.824C284.934 94.1133 285.303 94.4773 285.546 94.916V93.516H286.834V101.188H285.546V99.76C285.294 100.208 284.916 100.581 284.412 100.88C283.917 101.169 283.338 101.314 282.676 101.314C281.994 101.314 281.378 101.146 280.828 100.81C280.277 100.474 279.843 100.003 279.526 99.396C279.208 98.7893 279.05 98.0987 279.05 97.324ZM285.546 97.338C285.546 96.7593 285.429 96.2553 285.196 95.826C284.962 95.3967 284.645 95.07 284.244 94.846C283.852 94.6127 283.418 94.496 282.942 94.496C282.466 94.496 282.032 94.608 281.64 94.832C281.248 95.056 280.935 95.3827 280.702 95.812C280.468 96.2413 280.352 96.7453 280.352 97.324C280.352 97.912 280.468 98.4253 280.702 98.864C280.935 99.2933 281.248 99.6247 281.64 99.858C282.032 100.082 282.466 100.194 282.942 100.194C283.418 100.194 283.852 100.082 284.244 99.858C284.645 99.6247 284.962 99.2933 285.196 98.864C285.429 98.4253 285.546 97.9167 285.546 97.338Z" fill="white"/>
<path d="M298.212 93.376C298.81 93.376 299.342 93.502 299.808 93.754C300.275 93.9967 300.644 94.3653 300.914 94.86C301.185 95.3547 301.32 95.9567 301.32 96.666V101.188H300.06V96.848C300.06 96.0827 299.869 95.4993 299.486 95.098C299.113 94.6873 298.604 94.482 297.96 94.482C297.298 94.482 296.77 94.6967 296.378 95.126C295.986 95.546 295.79 96.1573 295.79 96.96V101.188H294.53V96.848C294.53 96.0827 294.339 95.4993 293.956 95.098C293.583 94.6873 293.074 94.482 292.43 94.482C291.768 94.482 291.24 94.6967 290.848 95.126C290.456 95.546 290.26 96.1573 290.26 96.96V101.188H288.986V93.516H290.26V94.622C290.512 94.2207 290.848 93.9127 291.268 93.698C291.698 93.4833 292.169 93.376 292.682 93.376C293.326 93.376 293.896 93.5207 294.39 93.81C294.885 94.0993 295.254 94.524 295.496 95.084C295.711 94.5427 296.066 94.1227 296.56 93.824C297.055 93.5253 297.606 93.376 298.212 93.376Z" fill="white"/>
<path d="M304.726 99.424L303.158 103.19H302.304L303.326 99.424H304.726Z" fill="white"/>
<path d="M6.524 141.018H2.268L1.484 143.188H0.14L3.668 133.486H5.138L8.652 143.188H7.308L6.524 141.018ZM6.16 139.982L4.396 135.054L2.632 139.982H6.16Z" fill="white"/>
<path d="M13.9276 135.376C14.8609 135.376 15.6169 135.661 16.1956 136.23C16.7743 136.79 17.0636 137.602 17.0636 138.666V143.188H15.8036V138.848C15.8036 138.083 15.6123 137.499 15.2296 137.098C14.8469 136.687 14.3243 136.482 13.6616 136.482C12.9896 136.482 12.4529 136.692 12.0516 137.112C11.6596 137.532 11.4636 138.143 11.4636 138.946V143.188H10.1896V135.516H11.4636V136.608C11.7156 136.216 12.0563 135.913 12.4856 135.698C12.9243 135.483 13.4049 135.376 13.9276 135.376Z" fill="white"/>
<path d="M18.6687 139.324C18.6687 138.54 18.8273 137.854 19.1447 137.266C19.462 136.669 19.896 136.207 20.4467 135.88C21.0067 135.553 21.632 135.39 22.3227 135.39C22.92 135.39 23.4753 135.53 23.9887 135.81C24.502 136.081 24.894 136.44 25.1647 136.888V132.828H26.4527V143.188H25.1647V141.746C24.9127 142.203 24.5393 142.581 24.0447 142.88C23.55 143.169 22.9713 143.314 22.3087 143.314C21.6273 143.314 21.0067 143.146 20.4467 142.81C19.896 142.474 19.462 142.003 19.1447 141.396C18.8273 140.789 18.6687 140.099 18.6687 139.324ZM25.1647 139.338C25.1647 138.759 25.048 138.255 24.8147 137.826C24.5813 137.397 24.264 137.07 23.8627 136.846C23.4707 136.613 23.0367 136.496 22.5607 136.496C22.0847 136.496 21.6507 136.608 21.2587 136.832C20.8667 137.056 20.554 137.383 20.3207 137.812C20.0873 138.241 19.9707 138.745 19.9707 139.324C19.9707 139.912 20.0873 140.425 20.3207 140.864C20.554 141.293 20.8667 141.625 21.2587 141.858C21.6507 142.082 22.0847 142.194 22.5607 142.194C23.0367 142.194 23.4707 142.082 23.8627 141.858C24.264 141.625 24.5813 141.293 24.8147 140.864C25.048 140.425 25.1647 139.917 25.1647 139.338Z" fill="white"/>
<path d="M32.4136 135.376C32.9923 135.376 33.5149 135.502 33.9816 135.754C34.4483 135.997 34.8123 136.365 35.0736 136.86C35.3443 137.355 35.4796 137.957 35.4796 138.666V143.188H34.2196V138.848C34.2196 138.083 34.0283 137.499 33.6456 137.098C33.2629 136.687 32.7403 136.482 32.0776 136.482C31.4056 136.482 30.8689 136.692 30.4676 137.112C30.0756 137.532 29.8796 138.143 29.8796 138.946V143.188H28.6056V132.828H29.8796V136.608C30.1316 136.216 30.4769 135.913 30.9156 135.698C31.3636 135.483 31.8629 135.376 32.4136 135.376Z" fill="white"/>
<path d="M38.8347 136.762C39.0587 136.323 39.376 135.983 39.7867 135.74C40.2067 135.497 40.7154 135.376 41.3127 135.376V136.692H40.9767C39.5487 136.692 38.8347 137.467 38.8347 139.016V143.188H37.5607V135.516H38.8347V136.762Z" fill="white"/>
<path d="M42.3073 139.324C42.3073 138.54 42.466 137.854 42.7833 137.266C43.1007 136.669 43.5347 136.207 44.0853 135.88C44.6453 135.553 45.266 135.39 45.9473 135.39C46.6193 135.39 47.2027 135.535 47.6973 135.824C48.192 136.113 48.5607 136.477 48.8033 136.916V135.516H50.0913V143.188H48.8033V141.76C48.5513 142.208 48.1733 142.581 47.6693 142.88C47.1747 143.169 46.596 143.314 45.9333 143.314C45.252 143.314 44.636 143.146 44.0853 142.81C43.5347 142.474 43.1007 142.003 42.7833 141.396C42.466 140.789 42.3073 140.099 42.3073 139.324ZM48.8033 139.338C48.8033 138.759 48.6867 138.255 48.4533 137.826C48.22 137.397 47.9027 137.07 47.5013 136.846C47.1093 136.613 46.6753 136.496 46.1993 136.496C45.7233 136.496 45.2893 136.608 44.8973 136.832C44.5053 137.056 44.1927 137.383 43.9593 137.812C43.726 138.241 43.6093 138.745 43.6093 139.324C43.6093 139.912 43.726 140.425 43.9593 140.864C44.1927 141.293 44.5053 141.625 44.8973 141.858C45.2893 142.082 45.7233 142.194 46.1993 142.194C46.6753 142.194 47.1093 142.082 47.5013 141.858C47.9027 141.625 48.22 141.293 48.4533 140.864C48.6867 140.425 48.8033 139.917 48.8033 139.338Z" fill="white"/>
<path d="M62.5007 136.286C62.5007 137.098 62.2207 137.775 61.6607 138.316C61.11 138.848 60.2654 139.114 59.1267 139.114H57.2507V143.188H55.9767V133.43H59.1267C60.228 133.43 61.0634 133.696 61.6327 134.228C62.2114 134.76 62.5007 135.446 62.5007 136.286ZM59.1267 138.064C59.836 138.064 60.3587 137.91 60.6947 137.602C61.0307 137.294 61.1987 136.855 61.1987 136.286C61.1987 135.082 60.508 134.48 59.1267 134.48H57.2507V138.064H59.1267Z" fill="white"/>
<path d="M65.3581 136.762C65.5821 136.323 65.8995 135.983 66.3101 135.74C66.7301 135.497 67.2388 135.376 67.8361 135.376V136.692H67.5001C66.0721 136.692 65.3581 137.467 65.3581 139.016V143.188H64.0841V135.516H65.3581V136.762Z" fill="white"/>
<path d="M68.8308 139.324C68.8308 138.54 68.9895 137.854 69.3068 137.266C69.6241 136.669 70.0581 136.207 70.6088 135.88C71.1688 135.553 71.7894 135.39 72.4708 135.39C73.1428 135.39 73.7261 135.535 74.2208 135.824C74.7154 136.113 75.0841 136.477 75.3268 136.916V135.516H76.6148V143.188H75.3268V141.76C75.0748 142.208 74.6968 142.581 74.1928 142.88C73.6981 143.169 73.1194 143.314 72.4568 143.314C71.7754 143.314 71.1594 143.146 70.6088 142.81C70.0581 142.474 69.6241 142.003 69.3068 141.396C68.9895 140.789 68.8308 140.099 68.8308 139.324ZM75.3268 139.338C75.3268 138.759 75.2101 138.255 74.9768 137.826C74.7435 137.397 74.4261 137.07 74.0248 136.846C73.6328 136.613 73.1988 136.496 72.7228 136.496C72.2468 136.496 71.8128 136.608 71.4208 136.832C71.0288 137.056 70.7161 137.383 70.4828 137.812C70.2494 138.241 70.1328 138.745 70.1328 139.324C70.1328 139.912 70.2494 140.425 70.4828 140.864C70.7161 141.293 71.0288 141.625 71.4208 141.858C71.8128 142.082 72.2468 142.194 72.7228 142.194C73.1988 142.194 73.6328 142.082 74.0248 141.858C74.4261 141.625 74.7435 141.293 74.9768 140.864C75.2101 140.425 75.3268 139.917 75.3268 139.338Z" fill="white"/>
<path d="M78.2917 139.324C78.2917 138.54 78.4504 137.854 78.7677 137.266C79.0851 136.669 79.5191 136.207 80.0697 135.88C80.6297 135.553 81.2551 135.39 81.9457 135.39C82.5431 135.39 83.0984 135.53 83.6117 135.81C84.1251 136.081 84.5171 136.44 84.7877 136.888V132.828H86.0757V143.188H84.7877V141.746C84.5357 142.203 84.1624 142.581 83.6677 142.88C83.1731 143.169 82.5944 143.314 81.9317 143.314C81.2504 143.314 80.6297 143.146 80.0697 142.81C79.5191 142.474 79.0851 142.003 78.7677 141.396C78.4504 140.789 78.2917 140.099 78.2917 139.324ZM84.7877 139.338C84.7877 138.759 84.6711 138.255 84.4377 137.826C84.2044 137.397 83.8871 137.07 83.4857 136.846C83.0937 136.613 82.6597 136.496 82.1837 136.496C81.7077 136.496 81.2737 136.608 80.8817 136.832C80.4897 137.056 80.1771 137.383 79.9437 137.812C79.7104 138.241 79.5937 138.745 79.5937 139.324C79.5937 139.912 79.7104 140.425 79.9437 140.864C80.1771 141.293 80.4897 141.625 80.8817 141.858C81.2737 142.082 81.7077 142.194 82.1837 142.194C82.6597 142.194 83.0937 142.082 83.4857 141.858C83.8871 141.625 84.2044 141.293 84.4377 140.864C84.6711 140.425 84.7877 139.917 84.7877 139.338Z" fill="white"/>
<path d="M95.2287 139.058C95.2287 139.301 95.2147 139.557 95.1867 139.828H89.0547C89.1013 140.584 89.358 141.177 89.8247 141.606C90.3007 142.026 90.8747 142.236 91.5467 142.236C92.0973 142.236 92.5547 142.11 92.9187 141.858C93.292 141.597 93.5533 141.251 93.7027 140.822H95.0747C94.8693 141.559 94.4587 142.161 93.8427 142.628C93.2267 143.085 92.4613 143.314 91.5467 143.314C90.8187 143.314 90.1653 143.151 89.5867 142.824C89.0173 142.497 88.5693 142.035 88.2427 141.438C87.916 140.831 87.7527 140.131 87.7527 139.338C87.7527 138.545 87.9113 137.849 88.2287 137.252C88.546 136.655 88.9893 136.197 89.5587 135.88C90.1373 135.553 90.8 135.39 91.5467 135.39C92.2747 135.39 92.9187 135.549 93.4787 135.866C94.0387 136.183 94.468 136.622 94.7667 137.182C95.0747 137.733 95.2287 138.358 95.2287 139.058ZM93.9127 138.792C93.9127 138.307 93.8053 137.891 93.5907 137.546C93.376 137.191 93.082 136.925 92.7087 136.748C92.3447 136.561 91.9387 136.468 91.4907 136.468C90.8467 136.468 90.296 136.673 89.8387 137.084C89.3907 137.495 89.134 138.064 89.0687 138.792H93.9127Z" fill="white"/>
<path d="M99.6263 143.314C99.0383 143.314 98.511 143.216 98.0443 143.02C97.5776 142.815 97.209 142.535 96.9383 142.18C96.6676 141.816 96.5183 141.401 96.4903 140.934H97.8063C97.8436 141.317 98.021 141.629 98.3383 141.872C98.665 142.115 99.0896 142.236 99.6123 142.236C100.098 142.236 100.48 142.129 100.76 141.914C101.04 141.699 101.18 141.429 101.18 141.102C101.18 140.766 101.031 140.519 100.732 140.36C100.434 140.192 99.9716 140.029 99.3463 139.87C98.777 139.721 98.3103 139.571 97.9463 139.422C97.5916 139.263 97.2836 139.035 97.0223 138.736C96.7703 138.428 96.6443 138.027 96.6443 137.532C96.6443 137.14 96.761 136.781 96.9943 136.454C97.2276 136.127 97.559 135.871 97.9883 135.684C98.4176 135.488 98.9076 135.39 99.4583 135.39C100.308 135.39 100.994 135.605 101.516 136.034C102.039 136.463 102.319 137.051 102.356 137.798H101.082C101.054 137.397 100.891 137.075 100.592 136.832C100.303 136.589 99.911 136.468 99.4163 136.468C98.959 136.468 98.595 136.566 98.3243 136.762C98.0536 136.958 97.9183 137.215 97.9183 137.532C97.9183 137.784 97.9976 137.994 98.1563 138.162C98.3243 138.321 98.5296 138.451 98.7723 138.554C99.0243 138.647 99.3696 138.755 99.8083 138.876C100.359 139.025 100.807 139.175 101.152 139.324C101.498 139.464 101.792 139.679 102.034 139.968C102.286 140.257 102.417 140.635 102.426 141.102C102.426 141.522 102.31 141.9 102.076 142.236C101.843 142.572 101.512 142.838 101.082 143.034C100.662 143.221 100.177 143.314 99.6263 143.314Z" fill="white"/>
<path d="M108.033 135.376C108.611 135.376 109.134 135.502 109.601 135.754C110.067 135.997 110.431 136.365 110.693 136.86C110.963 137.355 111.099 137.957 111.099 138.666V143.188H109.839V138.848C109.839 138.083 109.647 137.499 109.265 137.098C108.882 136.687 108.359 136.482 107.697 136.482C107.025 136.482 106.488 136.692 106.087 137.112C105.695 137.532 105.499 138.143 105.499 138.946V143.188H104.225V132.828H105.499V136.608C105.751 136.216 106.096 135.913 106.535 135.698C106.983 135.483 107.482 135.376 108.033 135.376Z" fill="white"/>
<path d="M114.496 141.424L112.928 145.19H112.074L113.096 141.424H114.496Z" fill="white"/>
<path d="M125.932 134.172H121.018V137.364C121.232 137.065 121.55 136.823 121.97 136.636C122.39 136.44 122.842 136.342 123.328 136.342C124.102 136.342 124.732 136.505 125.218 136.832C125.703 137.149 126.048 137.565 126.254 138.078C126.468 138.582 126.576 139.119 126.576 139.688C126.576 140.36 126.45 140.962 126.198 141.494C125.946 142.026 125.558 142.446 125.036 142.754C124.522 143.062 123.883 143.216 123.118 143.216C122.138 143.216 121.344 142.964 120.738 142.46C120.131 141.956 119.762 141.284 119.632 140.444H120.878C120.999 140.976 121.256 141.391 121.648 141.69C122.04 141.989 122.534 142.138 123.132 142.138C123.869 142.138 124.424 141.919 124.798 141.48C125.171 141.032 125.358 140.444 125.358 139.716C125.358 138.988 125.171 138.428 124.798 138.036C124.424 137.635 123.874 137.434 123.146 137.434C122.651 137.434 122.217 137.555 121.844 137.798C121.48 138.031 121.214 138.353 121.046 138.764H119.842V133.052H125.932V134.172Z" fill="white"/>
<path d="M128.241 135.614C128.306 134.755 128.637 134.083 129.235 133.598C129.832 133.113 130.607 132.87 131.559 132.87C132.193 132.87 132.739 132.987 133.197 133.22C133.663 133.444 134.013 133.752 134.247 134.144C134.489 134.536 134.611 134.979 134.611 135.474C134.611 136.053 134.443 136.552 134.107 136.972C133.78 137.392 133.351 137.663 132.819 137.784V137.854C133.425 138.003 133.906 138.297 134.261 138.736C134.615 139.175 134.793 139.749 134.793 140.458C134.793 140.99 134.671 141.471 134.429 141.9C134.186 142.32 133.822 142.651 133.337 142.894C132.851 143.137 132.268 143.258 131.587 143.258C130.597 143.258 129.785 143.001 129.151 142.488C128.516 141.965 128.161 141.228 128.087 140.276H129.319C129.384 140.836 129.613 141.293 130.005 141.648C130.397 142.003 130.919 142.18 131.573 142.18C132.226 142.18 132.721 142.012 133.057 141.676C133.402 141.331 133.575 140.887 133.575 140.346C133.575 139.646 133.341 139.142 132.875 138.834C132.408 138.526 131.703 138.372 130.761 138.372H130.439V137.308H130.775C131.633 137.299 132.282 137.159 132.721 136.888C133.159 136.608 133.379 136.179 133.379 135.6C133.379 135.105 133.215 134.709 132.889 134.41C132.571 134.111 132.114 133.962 131.517 133.962C130.938 133.962 130.471 134.111 130.117 134.41C129.762 134.709 129.552 135.11 129.487 135.614H128.241Z" fill="white"/>
<path d="M136.513 138.022C136.513 136.417 136.774 135.166 137.297 134.27C137.819 133.365 138.734 132.912 140.041 132.912C141.338 132.912 142.248 133.365 142.771 134.27C143.293 135.166 143.555 136.417 143.555 138.022C143.555 139.655 143.293 140.925 142.771 141.83C142.248 142.735 141.338 143.188 140.041 143.188C138.734 143.188 137.819 142.735 137.297 141.83C136.774 140.925 136.513 139.655 136.513 138.022ZM142.295 138.022C142.295 137.21 142.239 136.524 142.127 135.964C142.024 135.395 141.805 134.937 141.469 134.592C141.142 134.247 140.666 134.074 140.041 134.074C139.406 134.074 138.921 134.247 138.585 134.592C138.258 134.937 138.039 135.395 137.927 135.964C137.824 136.524 137.773 137.21 137.773 138.022C137.773 138.862 137.824 139.567 137.927 140.136C138.039 140.705 138.258 141.163 138.585 141.508C138.921 141.853 139.406 142.026 140.041 142.026C140.666 142.026 141.142 141.853 141.469 141.508C141.805 141.163 142.024 140.705 142.127 140.136C142.239 139.567 142.295 138.862 142.295 138.022Z" fill="white"/>
<path d="M145.304 138.022C145.304 136.417 145.565 135.166 146.088 134.27C146.61 133.365 147.525 132.912 148.832 132.912C150.129 132.912 151.039 133.365 151.562 134.27C152.084 135.166 152.346 136.417 152.346 138.022C152.346 139.655 152.084 140.925 151.562 141.83C151.039 142.735 150.129 143.188 148.832 143.188C147.525 143.188 146.61 142.735 146.088 141.83C145.565 140.925 145.304 139.655 145.304 138.022ZM151.086 138.022C151.086 137.21 151.03 136.524 150.918 135.964C150.815 135.395 150.596 134.937 150.26 134.592C149.933 134.247 149.457 134.074 148.832 134.074C148.197 134.074 147.712 134.247 147.376 134.592C147.049 134.937 146.83 135.395 146.718 135.964C146.615 136.524 146.564 137.21 146.564 138.022C146.564 138.862 146.615 139.567 146.718 140.136C146.83 140.705 147.049 141.163 147.376 141.508C147.712 141.853 148.197 142.026 148.832 142.026C149.457 142.026 149.933 141.853 150.26 141.508C150.596 141.163 150.815 140.705 150.918 140.136C151.03 139.567 151.086 138.862 151.086 138.022Z" fill="white"/>
<path d="M154.095 138.022C154.095 136.417 154.356 135.166 154.879 134.27C155.401 133.365 156.316 132.912 157.623 132.912C158.92 132.912 159.83 133.365 160.353 134.27C160.875 135.166 161.137 136.417 161.137 138.022C161.137 139.655 160.875 140.925 160.353 141.83C159.83 142.735 158.92 143.188 157.623 143.188C156.316 143.188 155.401 142.735 154.879 141.83C154.356 140.925 154.095 139.655 154.095 138.022ZM159.877 138.022C159.877 137.21 159.821 136.524 159.709 135.964C159.606 135.395 159.387 134.937 159.051 134.592C158.724 134.247 158.248 134.074 157.623 134.074C156.988 134.074 156.503 134.247 156.167 134.592C155.84 134.937 155.621 135.395 155.509 135.964C155.406 136.524 155.355 137.21 155.355 138.022C155.355 138.862 155.406 139.567 155.509 140.136C155.621 140.705 155.84 141.163 156.167 141.508C156.503 141.853 156.988 142.026 157.623 142.026C158.248 142.026 158.724 141.853 159.051 141.508C159.387 141.163 159.606 140.705 159.709 140.136C159.821 139.567 159.877 138.862 159.877 138.022Z" fill="white"/>
<path d="M162.858 135.614C162.923 134.755 163.255 134.083 163.852 133.598C164.449 133.113 165.224 132.87 166.176 132.87C166.811 132.87 167.357 132.987 167.814 133.22C168.281 133.444 168.63 133.752 168.864 134.144C169.106 134.536 169.228 134.979 169.228 135.474C169.228 136.053 169.06 136.552 168.724 136.972C168.397 137.392 167.968 137.663 167.436 137.784V137.854C168.043 138.003 168.523 138.297 168.878 138.736C169.233 139.175 169.41 139.749 169.41 140.458C169.41 140.99 169.289 141.471 169.046 141.9C168.803 142.32 168.439 142.651 167.954 142.894C167.469 143.137 166.885 143.258 166.204 143.258C165.215 143.258 164.403 143.001 163.768 142.488C163.133 141.965 162.779 141.228 162.704 140.276H163.936C164.001 140.836 164.23 141.293 164.622 141.648C165.014 142.003 165.537 142.18 166.19 142.18C166.843 142.18 167.338 142.012 167.674 141.676C168.019 141.331 168.192 140.887 168.192 140.346C168.192 139.646 167.959 139.142 167.492 138.834C167.025 138.526 166.321 138.372 165.378 138.372H165.056V137.308H165.392C166.25 137.299 166.899 137.159 167.338 136.888C167.777 136.608 167.996 136.179 167.996 135.6C167.996 135.105 167.833 134.709 167.506 134.41C167.189 134.111 166.731 133.962 166.134 133.962C165.555 133.962 165.089 134.111 164.734 134.41C164.379 134.709 164.169 135.11 164.104 135.614H162.858Z" fill="white"/>
<path d="M2.03 175.43V185.188H0.756V175.43H2.03Z" fill="white"/>
<path d="M7.93931 177.376C8.87265 177.376 9.62865 177.661 10.2073 178.23C10.786 178.79 11.0753 179.602 11.0753 180.666V185.188H9.81531V180.848C9.81531 180.083 9.62398 179.499 9.24131 179.098C8.85865 178.687 8.33598 178.482 7.67331 178.482C7.00131 178.482 6.46465 178.692 6.06331 179.112C5.67131 179.532 5.47531 180.143 5.47531 180.946V185.188H4.20131V177.516H5.47531V178.608C5.72731 178.216 6.06798 177.913 6.49731 177.698C6.93598 177.483 7.41665 177.376 7.93931 177.376Z" fill="white"/>
<path d="M12.6804 181.324C12.6804 180.54 12.8391 179.854 13.1564 179.266C13.4737 178.669 13.9077 178.207 14.4584 177.88C15.0184 177.553 15.6437 177.39 16.3344 177.39C16.9317 177.39 17.4871 177.53 18.0004 177.81C18.5137 178.081 18.9057 178.44 19.1764 178.888V174.828H20.4644V185.188H19.1764V183.746C18.9244 184.203 18.5511 184.581 18.0564 184.88C17.5617 185.169 16.9831 185.314 16.3204 185.314C15.6391 185.314 15.0184 185.146 14.4584 184.81C13.9077 184.474 13.4737 184.003 13.1564 183.396C12.8391 182.789 12.6804 182.099 12.6804 181.324ZM19.1764 181.338C19.1764 180.759 19.0597 180.255 18.8264 179.826C18.5931 179.397 18.2757 179.07 17.8744 178.846C17.4824 178.613 17.0484 178.496 16.5724 178.496C16.0964 178.496 15.6624 178.608 15.2704 178.832C14.8784 179.056 14.5657 179.383 14.3324 179.812C14.0991 180.241 13.9824 180.745 13.9824 181.324C13.9824 181.912 14.0991 182.425 14.3324 182.864C14.5657 183.293 14.8784 183.625 15.2704 183.858C15.6624 184.082 16.0964 184.194 16.5724 184.194C17.0484 184.194 17.4824 184.082 17.8744 183.858C18.2757 183.625 18.5931 183.293 18.8264 182.864C19.0597 182.425 19.1764 181.917 19.1764 181.338Z" fill="white"/>
<path d="M23.2753 176.27C23.0327 176.27 22.8273 176.186 22.6593 176.018C22.4913 175.85 22.4073 175.645 22.4073 175.402C22.4073 175.159 22.4913 174.954 22.6593 174.786C22.8273 174.618 23.0327 174.534 23.2753 174.534C23.5087 174.534 23.7047 174.618 23.8633 174.786C24.0313 174.954 24.1153 175.159 24.1153 175.402C24.1153 175.645 24.0313 175.85 23.8633 176.018C23.7047 176.186 23.5087 176.27 23.2753 176.27ZM23.8913 177.516V185.188H22.6173V177.516H23.8913Z" fill="white"/>
<path d="M25.5866 181.324C25.5866 180.54 25.7453 179.854 26.0626 179.266C26.38 178.669 26.814 178.207 27.3646 177.88C27.9246 177.553 28.5453 177.39 29.2266 177.39C29.8986 177.39 30.482 177.535 30.9766 177.824C31.4713 178.113 31.84 178.477 32.0826 178.916V177.516H33.3706V185.188H32.0826V183.76C31.8306 184.208 31.4526 184.581 30.9486 184.88C30.454 185.169 29.8753 185.314 29.2126 185.314C28.5313 185.314 27.9153 185.146 27.3646 184.81C26.814 184.474 26.38 184.003 26.0626 183.396C25.7453 182.789 25.5866 182.099 25.5866 181.324ZM32.0826 181.338C32.0826 180.759 31.966 180.255 31.7326 179.826C31.4993 179.397 31.182 179.07 30.7806 178.846C30.3886 178.613 29.9546 178.496 29.4786 178.496C29.0026 178.496 28.5686 178.608 28.1766 178.832C27.7846 179.056 27.472 179.383 27.2386 179.812C27.0053 180.241 26.8886 180.745 26.8886 181.324C26.8886 181.912 27.0053 182.425 27.2386 182.864C27.472 183.293 27.7846 183.625 28.1766 183.858C28.5686 184.082 29.0026 184.194 29.4786 184.194C29.9546 184.194 30.3886 184.082 30.7806 183.858C31.182 183.625 31.4993 183.293 31.7326 182.864C31.966 182.425 32.0826 181.917 32.0826 181.338Z" fill="white"/>
<path d="M21 10C21 17 12 23 12 23C12 23 3 17 3 10C3 7.61305 3.94821 5.32387 5.63604 3.63604C7.32387 1.94821 9.61305 1 12 1C14.3869 1 16.6761 1.94821 18.364 3.63604C20.0518 5.32387 21 7.61305 21 10Z" stroke="#E6FFFF" stroke-linecap="round" stroke-linejoin="round"/>
<path d="M12 13C13.6569 13 15 11.6569 15 10C15 8.34315 13.6569 7 12 7C10.3431 7 9 8.34315 9 10C9 11.6569 10.3431 13 12 13Z" stroke="white" stroke-linecap="round" stroke-linejoin="round"/>
</svg>
