<svg width="130" height="51" viewBox="0 0 130 51" fill="none" xmlns="http://www.w3.org/2000/svg">
<path d="M31.2477 10.9602C31.2477 13.0002 30.5277 14.7642 29.0877 16.2522C27.6477 17.7162 25.5477 18.7722 22.7877 19.4202C24.2757 19.8282 25.4037 20.5002 26.1717 21.4362C26.9397 22.3482 27.3237 23.4042 27.3237 24.6042C27.3237 26.5002 26.7237 28.1442 25.5237 29.5362C24.3477 30.9282 22.6197 32.0082 20.3397 32.7762C18.0597 33.5202 15.3117 33.8922 12.0957 33.8922C10.8957 33.8922 9.93573 33.8562 9.21573 33.7842C9.19173 34.4562 8.90373 34.9602 8.35173 35.2962C7.79973 35.6322 7.09173 35.8002 6.22773 35.8002C5.36373 35.8002 4.76373 35.6082 4.42773 35.2242C4.11573 34.8402 3.98373 34.2762 4.03173 33.5322C4.24773 30.1722 4.66773 26.6562 5.29173 22.9842C5.91573 19.2882 6.70773 15.7242 7.66773 12.2922C7.83573 11.6922 8.17173 11.2722 8.67573 11.0322C9.17973 10.7922 9.83973 10.6722 10.6557 10.6722C12.1197 10.6722 12.8517 11.0802 12.8517 11.8962C12.8517 12.2322 12.7797 12.6162 12.6357 13.0482C12.0117 14.9202 11.3877 17.4642 10.7637 20.6802C10.1397 23.8722 9.69573 26.9202 9.43173 29.8242C10.5837 29.9202 11.5197 29.9682 12.2397 29.9682C15.5997 29.9682 18.0597 29.4882 19.6197 28.5282C21.2037 27.5442 21.9957 26.2962 21.9957 24.7842C21.9957 23.7282 21.5397 22.8402 20.6277 22.1202C19.7397 21.4002 18.2397 21.0042 16.1277 20.9322C15.6477 20.9082 15.3117 20.7882 15.1197 20.5722C14.9277 20.3562 14.8317 20.0082 14.8317 19.5282C14.8317 18.8322 14.9757 18.2682 15.2637 17.8362C15.5517 17.4042 16.0797 17.1762 16.8477 17.1522C18.5517 17.1042 20.0877 16.8522 21.4557 16.3962C22.8477 15.9402 23.9397 15.3042 24.7317 14.4882C25.5237 13.6482 25.9197 12.6762 25.9197 11.5722C25.9197 10.1802 25.2357 9.08816 23.8677 8.29616C22.4997 7.48016 20.3997 7.07216 17.5677 7.07216C14.9997 7.07216 12.5157 7.40816 10.1157 8.08016C7.71573 8.72816 5.67573 9.55616 3.99573 10.5642C3.22773 11.0202 2.57973 11.2482 2.05173 11.2482C1.61973 11.2482 1.28373 11.1042 1.04373 10.8162C0.827727 10.5042 0.719727 10.1202 0.719727 9.66416C0.719727 9.06416 0.839727 8.54816 1.07973 8.11616C1.34373 7.68416 1.95573 7.19216 2.91573 6.64016C4.93173 5.48816 7.29573 4.58816 10.0077 3.94016C12.7197 3.29216 15.4917 2.96816 18.3237 2.96816C22.6677 2.96816 25.9077 3.70016 28.0437 5.16416C30.1797 6.62816 31.2477 8.56016 31.2477 10.9602Z" fill="white"/>
<path d="M34.4739 34.1802C33.3939 34.1802 32.5059 33.6882 31.8099 32.7042C31.1379 31.6962 30.8019 30.4482 30.8019 28.9602C30.8019 27.1602 30.9219 25.5162 31.1619 24.0282C31.4019 22.5162 31.7979 20.9202 32.3499 19.2402C32.5899 18.5202 32.9259 18.0042 33.3579 17.6922C33.7899 17.3802 34.4739 17.2242 35.4099 17.2242C35.9379 17.2242 36.2979 17.3082 36.4899 17.4762C36.7059 17.6442 36.8139 17.8962 36.8139 18.2322C36.8139 18.4242 36.6819 19.0722 36.4179 20.1762C36.1779 21.0642 35.9859 21.8682 35.8419 22.5882C35.3619 25.1082 35.1219 26.7882 35.1219 27.6282C35.1219 28.1322 35.1819 28.4922 35.3019 28.7082C35.4219 28.9002 35.6139 28.9962 35.8779 28.9962C36.2379 28.9962 36.6819 28.6362 37.2099 27.9162C37.7619 27.1962 38.3379 26.1042 38.9379 24.6402C39.5619 23.1762 40.1619 21.3762 40.7379 19.2402C40.9299 18.5202 41.2179 18.0042 41.6019 17.6922C42.0099 17.3802 42.6099 17.2242 43.4019 17.2242C43.9539 17.2242 44.3379 17.2962 44.5539 17.4402C44.7699 17.5602 44.8779 17.8002 44.8779 18.1602C44.8779 18.7602 44.5779 20.4042 43.9779 23.0922C43.3059 26.1642 42.9699 28.0602 42.9699 28.7802C42.9699 29.2362 43.0659 29.5962 43.2579 29.8602C43.4499 30.1002 43.7019 30.2202 44.0139 30.2202C44.4939 30.2202 45.0579 29.9322 45.7059 29.3562C46.3779 28.7562 47.2659 27.7962 48.3699 26.4762C48.6579 26.1402 48.9819 25.9722 49.3419 25.9722C49.6539 25.9722 49.8939 26.1162 50.0619 26.4042C50.2539 26.6922 50.3499 27.0882 50.3499 27.5922C50.3499 28.5522 50.1219 29.2962 49.6659 29.8242C48.6339 31.0962 47.5179 32.1402 46.3179 32.9562C45.1419 33.7722 43.7979 34.1802 42.2859 34.1802C41.1339 34.1802 40.2819 33.7362 39.7299 32.8482C39.2019 31.9602 38.9379 30.7122 38.9379 29.1042C38.5299 30.7362 37.9179 31.9962 37.1019 32.8842C36.2859 33.7482 35.4099 34.1802 34.4739 34.1802Z" fill="white"/>
<path d="M54.1269 34.9722C52.8789 34.9722 51.9188 34.6842 51.2468 34.1082C50.5988 33.5322 50.2748 32.8842 50.2748 32.1642C50.2748 31.5402 50.5029 31.0002 50.9589 30.5442C51.4149 30.0882 52.0868 29.8602 52.9748 29.8602C53.2868 29.8602 53.6469 29.8962 54.0549 29.9682C54.4869 30.0162 54.8109 30.0522 55.0269 30.0762C55.0029 29.4522 54.8589 28.8642 54.5949 28.3122C54.3549 27.7602 54.0429 27.2322 53.6589 26.7282C53.2749 26.2002 52.9148 25.7442 52.5788 25.3602C51.8348 26.7762 51.0909 27.9522 50.3469 28.8882C49.6269 29.8242 48.8349 30.7122 47.9709 31.5522C47.5389 31.9842 47.0829 32.2002 46.6029 32.2002C46.2189 32.2002 45.9069 32.0682 45.6669 31.8042C45.4269 31.5162 45.3069 31.1682 45.3069 30.7602C45.3069 30.2802 45.4749 29.8362 45.8109 29.4282L46.2789 28.8522C47.5989 27.2202 48.5948 25.8762 49.2668 24.8202C49.6748 24.1242 50.1549 23.2002 50.7069 22.0482C51.2589 20.8722 51.7989 19.6602 52.3269 18.4122C52.7829 17.3562 53.7309 16.8282 55.1709 16.8282C55.8429 16.8282 56.3109 16.8882 56.5749 17.0082C56.8389 17.1282 56.9709 17.3202 56.9709 17.5842C56.9709 17.7282 56.9229 17.9562 56.8269 18.2682C56.7309 18.5802 56.5989 18.8922 56.4309 19.2042C55.9989 20.0682 55.7829 20.8002 55.7829 21.4002C55.7829 21.7602 55.9029 22.1562 56.1429 22.5882C56.4069 23.0202 56.8029 23.5602 57.3309 24.2082C58.0989 25.2162 58.6748 26.0802 59.0588 26.8002C59.4668 27.4962 59.6709 28.2642 59.6709 29.1042C59.6709 29.3442 59.6469 29.6802 59.5989 30.1122C60.7749 29.6562 62.1549 28.4442 63.7389 26.4762C64.0269 26.1402 64.3509 25.9722 64.7109 25.9722C65.0229 25.9722 65.2629 26.1162 65.4309 26.4042C65.6229 26.6922 65.7188 27.0882 65.7188 27.5922C65.7188 28.5042 65.4909 29.2482 65.0349 29.8242C63.8349 31.3122 62.6828 32.3322 61.5788 32.8842C60.4989 33.4122 59.1549 33.7002 57.5469 33.7482C56.5869 34.5642 55.4468 34.9722 54.1269 34.9722Z" fill="white"/>
<path d="M67.5101 14.8482C66.5021 14.8482 65.7461 14.6202 65.2421 14.1642C64.7381 13.6842 64.4861 13.0242 64.4861 12.1842C64.4861 11.3442 64.8101 10.6482 65.4581 10.0962C66.1301 9.52016 66.9581 9.23216 67.9421 9.23216C68.8301 9.23216 69.5501 9.44816 70.1021 9.88016C70.6541 10.3122 70.9301 10.9242 70.9301 11.7162C70.9301 12.6762 70.6181 13.4442 69.9941 14.0202C69.3701 14.5722 68.5421 14.8482 67.5101 14.8482ZM67.2221 34.1802C65.6621 34.1802 64.5221 33.6282 63.8021 32.5242C63.1061 31.4202 62.7581 29.9562 62.7581 28.1322C62.7581 27.0522 62.8901 25.6722 63.1541 23.9922C63.4421 22.2882 63.8021 20.7042 64.2341 19.2402C64.4501 18.4722 64.7381 17.9442 65.0981 17.6562C65.4581 17.3682 66.0341 17.2242 66.8261 17.2242C68.0501 17.2242 68.6621 17.6322 68.6621 18.4482C68.6621 19.0482 68.4341 20.4402 67.9781 22.6242C67.4021 25.2642 67.1141 27.0522 67.1141 27.9882C67.1141 28.7082 67.2101 29.2602 67.4021 29.6442C67.5941 30.0282 67.9181 30.2202 68.3741 30.2202C68.8061 30.2202 69.3461 29.9202 69.9941 29.3202C70.6421 28.7202 71.5061 27.7722 72.5861 26.4762C72.8741 26.1402 73.1981 25.9722 73.5581 25.9722C73.8701 25.9722 74.1101 26.1162 74.2781 26.4042C74.4701 26.6922 74.5661 27.0882 74.5661 27.5922C74.5661 28.5522 74.3381 29.2962 73.8821 29.8242C71.5061 32.7282 69.2861 34.1802 67.2221 34.1802Z" fill="white"/>
<path d="M85.2975 25.9722C85.6095 25.9722 85.8495 26.1162 86.0175 26.4042C86.2095 26.6922 86.3055 27.0882 86.3055 27.5922C86.3055 28.5522 86.0775 29.2962 85.6215 29.8242C84.5895 31.0962 83.4615 32.1402 82.2375 32.9562C81.0375 33.7722 79.6695 34.1802 78.1335 34.1802C76.0215 34.1802 74.4495 33.2202 73.4175 31.3002C72.4095 29.3802 71.9055 26.8962 71.9055 23.8482C71.9055 20.9202 72.2775 17.5842 73.0215 13.8402C73.7895 10.0962 74.9055 6.88016 76.3695 4.19216C77.8575 1.50416 79.6215 0.160156 81.6615 0.160156C82.8135 0.160156 83.7135 0.700157 84.3615 1.78016C85.0335 2.83616 85.3695 4.36016 85.3695 6.35216C85.3695 9.20816 84.5775 12.5202 82.9935 16.2882C81.4095 20.0562 79.2615 23.7882 76.5495 27.4842C76.7175 28.4682 76.9935 29.1762 77.3775 29.6082C77.7615 30.0162 78.2655 30.2202 78.8895 30.2202C79.8735 30.2202 80.7375 29.9442 81.4815 29.3922C82.2255 28.8162 83.1735 27.8442 84.3255 26.4762C84.6135 26.1402 84.9375 25.9722 85.2975 25.9722ZM80.8695 3.72416C80.3175 3.72416 79.6935 4.72016 78.9975 6.71216C78.3015 8.70416 77.6895 11.1762 77.1615 14.1282C76.6335 17.0802 76.3455 19.9122 76.2975 22.6242C78.0015 19.8162 79.3575 17.0082 80.3655 14.2002C81.3735 11.3682 81.8775 8.78816 81.8775 6.46016C81.8775 4.63616 81.5415 3.72416 80.8695 3.72416Z" fill="white"/>
<path d="M101.828 26.0442C102.14 26.0442 102.38 26.2002 102.548 26.5122C102.74 26.8002 102.836 27.1722 102.836 27.6282C102.836 28.1802 102.752 28.6122 102.584 28.9242C102.416 29.2362 102.152 29.5122 101.792 29.7522L94.8797 34.3962C93.9677 39.3642 92.7677 43.2642 91.2797 46.0962C89.8157 48.9522 87.9437 50.3802 85.6637 50.3802C84.4397 50.3802 83.4437 49.9962 82.6757 49.2282C81.9077 48.4842 81.5237 47.5002 81.5237 46.2762C81.5237 45.1482 81.7757 43.9962 82.2797 42.8202C82.8077 41.6442 83.7677 40.2882 85.1597 38.7522C86.5757 37.2402 88.5677 35.5002 91.1357 33.5322L91.2437 32.7042C91.4117 31.8162 91.6037 30.5442 91.8197 28.8882C91.3397 30.6162 90.6677 31.9362 89.8037 32.8482C88.9397 33.7362 88.0277 34.1802 87.0677 34.1802C85.9877 34.1802 85.0997 33.6882 84.4037 32.7042C83.7317 31.6962 83.3957 30.4482 83.3957 28.9602C83.3957 27.1602 83.5157 25.5162 83.7557 24.0282C83.9957 22.5162 84.3917 20.9202 84.9437 19.2402C85.1837 18.5202 85.5197 18.0042 85.9517 17.6922C86.3837 17.3802 87.0677 17.2242 88.0037 17.2242C88.5317 17.2242 88.8917 17.3082 89.0837 17.4762C89.2997 17.6442 89.4077 17.8962 89.4077 18.2322C89.4077 18.4242 89.2757 19.0722 89.0117 20.1762C88.7717 21.0642 88.5797 21.8682 88.4357 22.5882C88.2437 23.5722 88.0757 24.5202 87.9317 25.4322C87.7877 26.3202 87.7157 27.0522 87.7157 27.6282C87.7157 28.5402 87.9677 28.9962 88.4717 28.9962C88.8317 28.9962 89.2757 28.6362 89.8037 27.9162C90.3557 27.1962 90.9317 26.1042 91.5317 24.6402C92.1557 23.1762 92.7557 21.3762 93.3317 19.2402C93.5237 18.5202 93.8117 18.0042 94.1957 17.6922C94.6037 17.3802 95.2037 17.2242 95.9957 17.2242C96.5477 17.2242 96.9317 17.2962 97.1477 17.4402C97.3637 17.5842 97.4717 17.8242 97.4717 18.1602C97.4717 18.7602 97.1597 20.8242 96.5357 24.3522L95.5997 30.1482C97.4477 28.7562 99.2477 27.4842 101 26.3322C101.312 26.1402 101.588 26.0442 101.828 26.0442ZM86.0597 46.8882C86.6597 46.8882 87.3317 46.1922 88.0757 44.8002C88.8197 43.4082 89.5637 41.0922 90.3077 37.8522C88.4597 39.4122 87.1157 40.8282 86.2757 42.1002C85.4597 43.3962 85.0517 44.5242 85.0517 45.4842C85.0517 45.8922 85.1237 46.2282 85.2677 46.4922C85.4357 46.7562 85.6997 46.8882 86.0597 46.8882Z" fill="white"/>
<path d="M117.496 25.9722C117.808 25.9722 118.048 26.1162 118.216 26.4042C118.408 26.6922 118.504 27.0882 118.504 27.5922C118.504 28.4802 118.276 29.2242 117.82 29.8242C116.692 31.2882 115.288 32.4402 113.608 33.2802C111.952 34.1202 110.08 34.5402 107.992 34.5402C106.36 34.5402 104.944 34.3002 103.744 33.8202C102.544 33.3162 101.62 32.6442 100.972 31.8042C100.348 30.9402 100.036 29.9802 100.036 28.9242C100.036 27.3402 100.672 25.9362 101.944 24.7122C103.216 23.4882 105.04 22.3122 107.416 21.1842L101.512 21.3282C100.984 21.3522 100.576 21.1722 100.288 20.7882C100.024 20.3802 99.8924 19.9002 99.8924 19.3482C99.8924 18.7722 100.024 18.2682 100.288 17.8362C100.576 17.3802 100.96 17.1522 101.44 17.1522C102.544 17.1522 104.02 17.2362 105.868 17.4042C106.252 17.4282 106.948 17.4762 107.956 17.5482C108.988 17.6202 109.852 17.6562 110.548 17.6562C110.788 17.6562 111.244 17.5602 111.916 17.3682C112.036 17.3442 112.264 17.2842 112.6 17.1882C112.96 17.0922 113.26 17.0442 113.5 17.0442C113.884 17.0442 114.196 17.2122 114.436 17.5482C114.7 17.8842 114.832 18.4002 114.832 19.0962C114.832 19.8642 114.652 20.4642 114.292 20.8962C113.932 21.3282 113.368 21.7122 112.6 22.0482C110.416 22.9842 108.604 23.9922 107.164 25.0722C105.724 26.1282 105.004 27.1842 105.004 28.2402C105.004 28.9122 105.316 29.4642 105.94 29.8962C106.564 30.3282 107.488 30.5442 108.712 30.5442C110.056 30.5442 111.412 30.2082 112.78 29.5362C114.172 28.8642 115.42 27.8442 116.524 26.4762C116.812 26.1402 117.136 25.9722 117.496 25.9722Z" fill="white"/>
<path d="M128.452 27.0522C128.764 27.0522 129.004 27.1962 129.172 27.4842C129.364 27.7722 129.46 28.1682 129.46 28.6722C129.46 29.5362 129.256 30.2802 128.848 30.9042C128.176 31.9362 127.288 32.7402 126.184 33.3162C125.104 33.8922 123.808 34.1802 122.296 34.1802C119.992 34.1802 118.204 33.4962 116.932 32.1282C115.66 30.7362 115.024 28.8642 115.024 26.5122C115.024 24.8562 115.372 23.3202 116.068 21.9042C116.764 20.4642 117.724 19.3242 118.948 18.4842C120.196 17.6442 121.6 17.2242 123.16 17.2242C124.552 17.2242 125.668 17.6442 126.508 18.4842C127.348 19.3002 127.768 20.4162 127.768 21.8322C127.768 23.4882 127.168 24.9162 125.968 26.1162C124.792 27.2922 122.776 28.2282 119.92 28.9242C120.496 30.0282 121.468 30.5802 122.836 30.5802C123.82 30.5802 124.624 30.3522 125.248 29.8962C125.896 29.4402 126.64 28.6722 127.48 27.5922C127.768 27.2322 128.092 27.0522 128.452 27.0522ZM122.548 20.7522C121.66 20.7522 120.904 21.2682 120.28 22.3002C119.68 23.3322 119.38 24.5802 119.38 26.0442V26.1162C120.796 25.7802 121.912 25.2762 122.728 24.6042C123.544 23.9322 123.952 23.1522 123.952 22.2642C123.952 21.8082 123.82 21.4482 123.556 21.1842C123.316 20.8962 122.98 20.7522 122.548 20.7522Z" fill="white"/>
</svg>
