<svg width="38" height="38" viewBox="0 0 38 38" fill="none" xmlns="http://www.w3.org/2000/svg">
<path d="M29.9742 8.93246C27.9558 8.00637 25.7915 7.32406 23.5285 6.93328C23.4873 6.92574 23.4461 6.94459 23.4249 6.98228C23.1466 7.47736 22.8382 8.12322 22.6223 8.63087C20.1884 8.26648 17.7669 8.26648 15.3828 8.63087C15.1669 8.11194 14.8474 7.47736 14.5678 6.98228C14.5465 6.94584 14.5054 6.927 14.4641 6.93328C12.2024 7.32282 10.0381 8.00512 8.0185 8.93246C8.00102 8.94 7.98603 8.95258 7.97609 8.9689C3.87077 15.1022 2.74616 21.0847 3.29785 26.993C3.30035 27.0219 3.31658 27.0495 3.33905 27.0671C6.04761 29.0562 8.67133 30.2638 11.2463 31.0642C11.2875 31.0768 11.3312 31.0617 11.3574 31.0278C11.9665 30.196 12.5095 29.3189 12.9751 28.3965C13.0025 28.3425 12.9763 28.2784 12.9201 28.2571C12.0589 27.9304 11.2388 27.532 10.45 27.0797C10.3876 27.0433 10.3826 26.954 10.44 26.9113C10.606 26.7869 10.772 26.6575 10.9305 26.5268C10.9592 26.5029 10.9992 26.4979 11.0329 26.513C16.2154 28.8791 21.826 28.8791 26.9473 26.513C26.981 26.4966 27.021 26.5017 27.0509 26.5255C27.2094 26.6562 27.3754 26.7869 27.5427 26.9113C27.6001 26.954 27.5964 27.0433 27.534 27.0797C26.7451 27.5408 25.925 27.9304 25.0625 28.2558C25.0064 28.2772 24.9814 28.3425 25.0089 28.3965C25.4844 29.3176 26.0274 30.1947 26.6253 31.0265C26.6502 31.0617 26.6951 31.0768 26.7364 31.0642C29.3238 30.2638 31.9475 29.0562 34.6561 27.0671C34.6798 27.0495 34.6948 27.0231 34.6973 26.9942C35.3576 20.1636 33.5914 14.2301 30.0153 8.97015C30.0066 8.95258 29.9916 8.94 29.9742 8.93246ZM13.749 23.3954C12.1887 23.3954 10.9031 21.963 10.9031 20.2038C10.9031 18.4446 12.1638 17.0121 13.749 17.0121C15.3466 17.0121 16.6198 18.4572 16.5948 20.2038C16.5948 21.963 15.3341 23.3954 13.749 23.3954ZM24.2712 23.3954C22.7109 23.3954 21.4253 21.963 21.4253 20.2038C21.4253 18.4446 22.686 17.0121 24.2712 17.0121C25.8689 17.0121 27.142 18.4572 27.1171 20.2038C27.1171 21.963 25.8689 23.3954 24.2712 23.3954Z" fill="white"/>
</svg>
