<svg width="25" height="24" viewBox="0 0 25 24" fill="none" xmlns="http://www.w3.org/2000/svg">
<path d="M15.5504 5C16.5272 5.19057 17.4248 5.66826 18.1285 6.37194C18.8322 7.07561 19.3099 7.97326 19.5004 8.95L15.5504 5ZM15.5504 1C17.5797 1.22544 19.472 2.13417 20.9167 3.57701C22.3613 5.01984 23.2724 6.91101 23.5004 8.94L15.5504 1ZM22.5004 16.92V19.92C22.5016 20.1985 22.4445 20.4742 22.3329 20.7293C22.2214 20.9845 22.0577 21.2136 21.8525 21.4019C21.6473 21.5901 21.405 21.7335 21.1412 21.8227C20.8773 21.9119 20.5978 21.9451 20.3204 21.92C17.2433 21.5856 14.2874 20.5341 11.6904 18.85C9.27425 17.3147 7.22576 15.2662 5.69042 12.85C4.0004 10.2412 2.94866 7.27099 2.62042 4.18C2.59543 3.90347 2.6283 3.62476 2.71692 3.36162C2.80555 3.09849 2.94799 2.85669 3.13519 2.65162C3.32238 2.44655 3.55023 2.28271 3.80421 2.17052C4.0582 2.05833 4.33276 2.00026 4.61042 2H7.61042C8.09573 1.99522 8.56621 2.16708 8.93418 2.48353C9.30215 2.79999 9.5425 3.23945 9.61042 3.72C9.73704 4.68007 9.97187 5.62273 10.3104 6.53C10.445 6.88792 10.4741 7.27691 10.3943 7.65088C10.3146 8.02485 10.1293 8.36811 9.86042 8.64L8.59042 9.91C10.014 12.4135 12.0869 14.4864 14.5904 15.91L15.8604 14.64C16.1323 14.3711 16.4756 14.1858 16.8495 14.1061C17.2235 14.0263 17.6125 14.0555 17.9704 14.19C18.8777 14.5286 19.8204 14.7634 20.7804 14.89C21.2662 14.9585 21.7098 15.2032 22.027 15.5775C22.3441 15.9518 22.5126 16.4296 22.5004 16.92Z" stroke="white" stroke-linecap="round" stroke-linejoin="round"/>
</svg>
