<svg width="38" height="38" viewBox="0 0 38 38" fill="none" xmlns="http://www.w3.org/2000/svg">
<path fill-rule="evenodd" clip-rule="evenodd" d="M19 4.75C15.1297 4.75 14.6452 4.76615 13.1252 4.8355C11.608 4.90485 10.5716 5.14615 9.6653 5.4986C8.7153 5.8558 7.85365 6.4163 7.14115 7.1421C6.41651 7.85378 5.85567 8.71482 5.49765 9.6653C5.1471 10.5716 4.90485 11.609 4.8355 13.1262C4.7671 14.6452 4.75 15.1288 4.75 19C4.75 22.8712 4.76615 23.3548 4.8355 24.8748C4.90485 26.3919 5.14615 27.4284 5.4986 28.3347C5.8558 29.2847 6.4163 30.1463 7.1421 30.8588C7.8538 31.5835 8.71483 32.1443 9.6653 32.5023C10.5716 32.8538 11.608 33.0951 13.1252 33.1645C14.6452 33.2338 15.1297 33.25 19 33.25C22.8703 33.25 23.3548 33.2338 24.8748 33.1645C26.3919 33.0951 27.4284 32.8538 28.3347 32.5014C29.2847 32.1442 30.1463 31.5837 30.8588 30.8579C31.5835 30.1462 32.1443 29.2852 32.5023 28.3347C32.8538 27.4284 33.0951 26.3919 33.1645 24.8748C33.2338 23.3548 33.25 22.8703 33.25 19C33.25 15.1297 33.2338 14.6452 33.1645 13.1252C33.0951 11.608 32.8538 10.5716 32.5014 9.6653C32.1436 8.71441 31.5828 7.85301 30.8579 7.14115C30.1462 6.41651 29.2852 5.85567 28.3347 5.49765C27.4284 5.1471 26.391 4.90485 24.8739 4.8355C23.3548 4.7671 22.8712 4.75 19 4.75ZM19 7.31785C22.8047 7.31785 23.256 7.3321 24.7589 7.4005C26.1478 7.46415 26.9021 7.695 27.4046 7.89165C28.0696 8.1491 28.5447 8.4588 29.0434 8.9566C29.5422 9.45535 29.8509 9.93035 30.1084 10.5953C30.3041 11.0979 30.5358 11.8522 30.5995 13.2411C30.6679 14.744 30.6822 15.1952 30.6822 19C30.6822 22.8047 30.6679 23.256 30.5995 24.7589C30.5358 26.1478 30.305 26.9021 30.1084 27.4046C29.8803 28.0236 29.5164 28.5836 29.0434 29.0434C28.5837 29.5165 28.0237 29.8804 27.4046 30.1084C26.9021 30.3041 26.1478 30.5358 24.7589 30.5995C23.256 30.6679 22.8057 30.6822 19 30.6822C15.1943 30.6822 14.744 30.6679 13.2411 30.5995C11.8522 30.5358 11.0979 30.305 10.5953 30.1084C9.97638 29.8803 9.41641 29.5164 8.9566 29.0434C8.48367 28.5836 8.11977 28.0236 7.89165 27.4046C7.69595 26.9021 7.46415 26.1478 7.4005 24.7589C7.3321 23.256 7.31785 22.8047 7.31785 19C7.31785 15.1952 7.3321 14.744 7.4005 13.2411C7.46415 11.8522 7.695 11.0979 7.89165 10.5953C8.1491 9.93035 8.4588 9.45535 8.9566 8.9566C9.41634 8.48354 9.97634 8.11963 10.5953 7.89165C11.0979 7.69595 11.8522 7.46415 13.2411 7.4005C14.744 7.3321 15.1952 7.31785 19 7.31785V7.31785Z" fill="white"/>
<path fill-rule="evenodd" clip-rule="evenodd" d="M19.0003 23.7542C18.3759 23.7542 17.7576 23.6312 17.1807 23.3922C16.6038 23.1533 16.0797 22.8031 15.6382 22.3615C15.1966 21.92 14.8464 21.3959 14.6075 20.819C14.3685 20.2421 14.2455 19.6238 14.2455 18.9994C14.2455 18.375 14.3685 17.7567 14.6075 17.1799C14.8464 16.603 15.1966 16.0788 15.6382 15.6373C16.0797 15.1958 16.6038 14.8456 17.1807 14.6066C17.7576 14.3677 18.3759 14.2447 19.0003 14.2447C20.2613 14.2447 21.4707 14.7456 22.3624 15.6373C23.2541 16.529 23.755 17.7384 23.755 18.9994C23.755 20.2605 23.2541 21.4699 22.3624 22.3615C21.4707 23.2532 20.2613 23.7542 19.0003 23.7542V23.7542ZM19.0003 11.6749C17.0577 11.6749 15.1947 12.4466 13.8211 13.8202C12.4475 15.1938 11.6758 17.0568 11.6758 18.9994C11.6758 20.942 12.4475 22.805 13.8211 24.1786C15.1947 25.5522 17.0577 26.3239 19.0003 26.3239C20.9429 26.3239 22.8059 25.5522 24.1795 24.1786C25.5531 22.805 26.3248 20.942 26.3248 18.9994C26.3248 17.0568 25.5531 15.1938 24.1795 13.8202C22.8059 12.4466 20.9429 11.6749 19.0003 11.6749V11.6749ZM28.4556 11.5419C28.4556 12.0011 28.2732 12.4415 27.9485 12.7662C27.6238 13.0909 27.1834 13.2733 26.7243 13.2733C26.2651 13.2733 25.8247 13.0909 25.5 12.7662C25.1753 12.4415 24.9929 12.0011 24.9929 11.5419C24.9929 11.0827 25.1753 10.6424 25.5 10.3177C25.8247 9.99296 26.2651 9.81055 26.7243 9.81055C27.1834 9.81055 27.6238 9.99296 27.9485 10.3177C28.2732 10.6424 28.4556 11.0827 28.4556 11.5419" fill="white"/>
</svg>
