<svg width="38" height="38" viewBox="0 0 38 38" fill="none" xmlns="http://www.w3.org/2000/svg">
<path d="M31.5917 12.5405C31.611 12.8196 31.611 13.0988 31.611 13.3805C31.611 21.9652 25.0757 31.866 13.1256 31.866V31.8608C9.59553 31.866 6.13876 30.8548 3.16699 28.9482C3.6803 29.01 4.19618 29.0408 4.71334 29.0421C7.63879 29.0447 10.4806 28.0631 12.7821 26.2556C10.0021 26.2029 7.56418 24.3902 6.71253 21.7439C7.68639 21.9318 8.68984 21.8932 9.6457 21.632C6.61475 21.0197 4.43417 18.3566 4.43417 15.264C4.43417 15.2357 4.43417 15.2086 4.43417 15.1816C5.33728 15.6846 6.34845 15.9638 7.38278 15.9947C4.52809 14.0868 3.64814 10.2891 5.37202 7.31995C8.67055 11.3788 13.5373 13.8463 18.7617 14.1074C18.2381 11.8509 18.9534 9.48638 20.6412 7.90015C23.2579 5.4404 27.3734 5.56648 29.8331 8.18189C31.2881 7.89501 32.6827 7.36112 33.9589 6.60467C33.4739 8.10856 32.4588 9.38603 31.1029 10.1978C32.3906 10.046 33.6488 9.70122 34.8337 9.17505C33.9614 10.4821 32.8628 11.6206 31.5917 12.5405Z" fill="white"/>
</svg>
