<svg width="1520" height="83" viewBox="0 0 1520 83" fill="none" xmlns="http://www.w3.org/2000/svg">
<rect width="1520" height="83" fill="#4C2165"/>
<g clip-path="url(#clip0_49_2200)">
<path d="M1424.81 20.9707C1413.17 20.9707 1403.71 30.2572 1403.71 41.6996C1403.71 53.1419 1413.17 62.4285 1424.81 62.4285C1436.46 62.4285 1445.91 53.1419 1445.91 41.6996C1445.91 30.2572 1436.46 20.9707 1424.81 20.9707ZM1424.81 27.1894C1428.31 27.1894 1431.14 29.967 1431.14 33.408C1431.14 36.849 1428.31 39.6267 1424.81 39.6267C1421.31 39.6267 1418.48 36.849 1418.48 33.408C1418.48 29.967 1421.31 27.1894 1424.81 27.1894ZM1424.81 56.6244C1419.54 56.6244 1414.87 53.9711 1412.15 49.9497C1412.22 45.8246 1420.59 43.5652 1424.81 43.5652C1429.01 43.5652 1437.41 45.8246 1437.47 49.9497C1434.75 53.9711 1430.09 56.6244 1424.81 56.6244Z" fill="#F1E3D3"/>
</g>
<defs>
<clipPath id="clip0_49_2200">
<rect width="50.6329" height="49.7493" fill="white" transform="translate(1399.49 16.8242)"/>
</clipPath>
</defs>
</svg>
