<svg width="93" height="16" viewBox="0 0 93 16" fill="none" xmlns="http://www.w3.org/2000/svg">
<path d="M7.776 4.032C7.776 4.59733 7.64267 5.13067 7.376 5.632C7.10933 6.13333 6.68267 6.544 6.096 6.864C5.50933 7.17333 4.75733 7.328 3.84 7.328H1.824V11.84H0V0.719999H3.84C4.69333 0.719999 5.41333 0.869333 6 1.168C6.59733 1.456 7.04 1.85067 7.328 2.352C7.62667 2.85333 7.776 3.41333 7.776 4.032ZM3.84 5.84C4.53333 5.84 5.05067 5.68533 5.392 5.376C5.73333 5.056 5.904 4.608 5.904 4.032C5.904 2.816 5.216 2.208 3.84 2.208H1.824V5.84H3.84Z" fill="white"/>
<path d="M13.3396 11.984C12.5076 11.984 11.7556 11.7973 11.0836 11.424C10.4116 11.04 9.88363 10.5067 9.49963 9.824C9.11563 9.13067 8.92362 8.33067 8.92362 7.424C8.92362 6.528 9.12096 5.73333 9.51562 5.04C9.91029 4.34667 10.449 3.81333 11.1316 3.44C11.8143 3.06667 12.577 2.88 13.4196 2.88C14.2623 2.88 15.025 3.06667 15.7076 3.44C16.3903 3.81333 16.929 4.34667 17.3236 5.04C17.7183 5.73333 17.9156 6.528 17.9156 7.424C17.9156 8.32 17.713 9.11467 17.3076 9.808C16.9023 10.5013 16.3476 11.04 15.6436 11.424C14.9503 11.7973 14.1823 11.984 13.3396 11.984ZM13.3396 10.4C13.809 10.4 14.2463 10.288 14.6516 10.064C15.0676 9.84 15.4036 9.504 15.6596 9.056C15.9156 8.608 16.0436 8.064 16.0436 7.424C16.0436 6.784 15.921 6.24533 15.6756 5.808C15.4303 5.36 15.105 5.024 14.6996 4.8C14.2943 4.576 13.857 4.464 13.3876 4.464C12.9183 4.464 12.481 4.576 12.0756 4.8C11.681 5.024 11.3663 5.36 11.1316 5.808C10.897 6.24533 10.7796 6.784 10.7796 7.424C10.7796 8.37333 11.0196 9.10933 11.4996 9.632C11.9903 10.144 12.6036 10.4 13.3396 10.4Z" fill="white"/>
<path d="M31.5588 3.024L28.8228 11.84H26.9028L25.1267 5.328L23.3507 11.84H21.4307L18.6787 3.024H20.5347L22.3748 10.112L24.2467 3.024H26.1507L27.9427 10.08L29.7668 3.024H31.5588Z" fill="white"/>
<path d="M41.0019 7.216C41.0019 7.54667 40.9805 7.84533 40.9379 8.112H34.2019C34.2552 8.816 34.5165 9.38133 34.9859 9.808C35.4552 10.2347 36.0312 10.448 36.7139 10.448C37.6952 10.448 38.3885 10.0373 38.7939 9.216H40.7619C40.4952 10.0267 40.0099 10.6933 39.3059 11.216C38.6125 11.728 37.7485 11.984 36.7139 11.984C35.8712 11.984 35.1139 11.7973 34.4419 11.424C33.7805 11.04 33.2579 10.5067 32.8739 9.824C32.5005 9.13067 32.3139 8.33067 32.3139 7.424C32.3139 6.51733 32.4952 5.72267 32.8579 5.04C33.2312 4.34667 33.7485 3.81333 34.4099 3.44C35.0819 3.06667 35.8499 2.88 36.7139 2.88C37.5459 2.88 38.2872 3.06133 38.9379 3.424C39.5885 3.78667 40.0952 4.29867 40.4579 4.96C40.8205 5.61067 41.0019 6.36267 41.0019 7.216ZM39.0979 6.64C39.0872 5.968 38.8472 5.42933 38.3779 5.024C37.9085 4.61867 37.3272 4.416 36.6339 4.416C36.0045 4.416 35.4659 4.61867 35.0179 5.024C34.5699 5.41867 34.3032 5.95733 34.2179 6.64H39.0979Z" fill="white"/>
<path d="M44.6209 4.304C44.8875 3.856 45.2395 3.50933 45.6769 3.264C46.1249 3.008 46.6529 2.88 47.2609 2.88V4.768H46.7969C46.0822 4.768 45.5382 4.94933 45.1649 5.312C44.8022 5.67467 44.6209 6.304 44.6209 7.2V11.84H42.7969V3.024H44.6209V4.304Z" fill="white"/>
<path d="M57.0175 7.216C57.0175 7.54667 56.9962 7.84533 56.9535 8.112H50.2175C50.2708 8.816 50.5322 9.38133 51.0015 9.808C51.4708 10.2347 52.0468 10.448 52.7295 10.448C53.7108 10.448 54.4042 10.0373 54.8095 9.216H56.7775C56.5108 10.0267 56.0255 10.6933 55.3215 11.216C54.6282 11.728 53.7642 11.984 52.7295 11.984C51.8868 11.984 51.1295 11.7973 50.4575 11.424C49.7962 11.04 49.2735 10.5067 48.8895 9.824C48.5162 9.13067 48.3295 8.33067 48.3295 7.424C48.3295 6.51733 48.5108 5.72267 48.8735 5.04C49.2468 4.34667 49.7642 3.81333 50.4255 3.44C51.0975 3.06667 51.8655 2.88 52.7295 2.88C53.5615 2.88 54.3028 3.06133 54.9535 3.424C55.6042 3.78667 56.1108 4.29867 56.4735 4.96C56.8362 5.61067 57.0175 6.36267 57.0175 7.216ZM55.1135 6.64C55.1028 5.968 54.8628 5.42933 54.3935 5.024C53.9242 4.61867 53.3428 4.416 52.6495 4.416C52.0202 4.416 51.4815 4.61867 51.0335 5.024C50.5855 5.41867 50.3188 5.95733 50.2335 6.64H55.1135Z" fill="white"/>
<path d="M58.2045 7.392C58.2045 6.50667 58.3858 5.72267 58.7485 5.04C59.1218 4.35733 59.6232 3.82933 60.2525 3.456C60.8925 3.072 61.6018 2.88 62.3805 2.88C62.9565 2.88 63.5218 3.008 64.0765 3.264C64.6418 3.50933 65.0898 3.84 65.4205 4.256V0H67.2605V11.84H65.4205V10.512C65.1218 10.9387 64.7058 11.2907 64.1725 11.568C63.6498 11.8453 63.0472 11.984 62.3645 11.984C61.5965 11.984 60.8925 11.792 60.2525 11.408C59.6232 11.0133 59.1218 10.4693 58.7485 9.776C58.3858 9.072 58.2045 8.27733 58.2045 7.392ZM65.4205 7.424C65.4205 6.816 65.2925 6.288 65.0365 5.84C64.7912 5.392 64.4658 5.05067 64.0605 4.816C63.6552 4.58133 63.2178 4.464 62.7485 4.464C62.2792 4.464 61.8418 4.58133 61.4365 4.816C61.0312 5.04 60.7005 5.376 60.4445 5.824C60.1992 6.26133 60.0765 6.784 60.0765 7.392C60.0765 8 60.1992 8.53333 60.4445 8.992C60.7005 9.45067 61.0312 9.80267 61.4365 10.048C61.8525 10.2827 62.2898 10.4 62.7485 10.4C63.2178 10.4 63.6552 10.2827 64.0605 10.048C64.4658 9.81333 64.7912 9.472 65.0365 9.024C65.2925 8.56533 65.4205 8.032 65.4205 7.424Z" fill="white"/>
<path d="M75.6365 4.336C75.9458 3.90933 76.3672 3.56267 76.9005 3.296C77.4445 3.01867 78.0472 2.88 78.7085 2.88C79.4872 2.88 80.1912 3.06667 80.8205 3.44C81.4498 3.81333 81.9458 4.34667 82.3085 5.04C82.6712 5.72267 82.8525 6.50667 82.8525 7.392C82.8525 8.27733 82.6712 9.072 82.3085 9.776C81.9458 10.4693 81.4445 11.0133 80.8045 11.408C80.1752 11.792 79.4765 11.984 78.7085 11.984C78.0258 11.984 77.4178 11.8507 76.8845 11.584C76.3618 11.3173 75.9458 10.976 75.6365 10.56V11.84H73.8125V0H75.6365V4.336ZM80.9965 7.392C80.9965 6.784 80.8685 6.26133 80.6125 5.824C80.3672 5.376 80.0365 5.04 79.6205 4.816C79.2152 4.58133 78.7778 4.464 78.3085 4.464C77.8498 4.464 77.4125 4.58133 76.9965 4.816C76.5912 5.05067 76.2605 5.392 76.0045 5.84C75.7592 6.288 75.6365 6.816 75.6365 7.424C75.6365 8.032 75.7592 8.56533 76.0045 9.024C76.2605 9.472 76.5912 9.81333 76.9965 10.048C77.4125 10.2827 77.8498 10.4 78.3085 10.4C78.7778 10.4 79.2152 10.2827 79.6205 10.048C80.0365 9.80267 80.3672 9.45067 80.6125 8.992C80.8685 8.53333 80.9965 8 80.9965 7.392Z" fill="white"/>
<path d="M92.5923 3.024L87.1842 15.984H85.2962L87.0883 11.696L83.6163 3.024H85.6483L88.1283 9.744L90.7043 3.024H92.5923Z" fill="white"/>
</svg>
